<svg xmlns:xlink="http://www.w3.org/1999/xlink" xmlns="http://www.w3.org/2000/svg" viewBox="0 0 312.5 312.49997748644233" preserveAspectRatio="xMidYMid meet" class="css-1cs2450" id="ddacfacb" width="312.5"  height="312.49997748644233" ><defs id="SvgjsDefs1994"></defs><g id="SvgjsG1995" featurekey="rootContainer" transform="matrix(2.9508970301915816,0,0,2.9508970301915816,0,0)" fill="#F7F7F7"><path xmlns="http://www.w3.org/2000/svg" d="M105.9 53c0 3.4-3.8 6.4-4.5 9.6s1.7 7.6.5 10.6-6 4.4-7.8 7.2-1.3 7.6-3.7 10-7.2 1.8-10 3.7-4.1 6.5-7.2 7.8-7.3-1.1-10.6-.5-6.2 4.5-9.6 4.5-6.4-3.8-9.7-4.5-7.6 1.7-10.6.5-4.4-6-7.2-7.8-7.6-1.3-10-3.7-1.8-7.2-3.7-10-6.5-4-7.8-7.2 1.1-7.3.5-10.6S0 56.4 0 53s3.8-6.4 4.5-9.7-1.8-7.5-.5-10.6 6-4.4 7.8-7.2 1.3-7.6 3.7-10 7.2-1.8 10-3.7 4.1-6.5 7.2-7.8 7.3 1.1 10.6.5S49.6 0 53 0s6.4 3.8 9.7 4.5 7.5-1.8 10.6-.5 4.4 6 7.2 7.8 7.6 1.3 10 3.7 1.8 7.2 3.7 10 6.5 4.1 7.8 7.2-1.1 7.3-.5 10.6 4.4 6.3 4.4 9.7z" fill="#F7F7F7"></path></g><g id="SvgjsG1996" featurekey="symbolFeature-0" transform="matrix(0.8518138604487895,0,0,0.8518138604487895,114.02395935744644,69.00843529159603)" fill="#393E46"><path xmlns="http://www.w3.org/2000/svg" d="M17.5041275,35.7431297c-1.3343868,8.6112938,0.5216618,17.1337776,5.0932598,23.3820763  c3.514101,4.8010101,8.4125443,7.9051132,13.7960033,8.738472c5.6766281,0.8803635,11.2528-0.4285355,15.7024422-3.6848221  c1.2481613-0.9118309,2.3596039-1.9456711,3.3257027-3.0756493c-2.2215347,0.9782219-4.8139458,1.2666473-7.6252594,0.8312111  c-11.7167435-1.81633-19.6727276-13.4636116-17.7357349-25.9645157c0.9339237-6.0297165,4.3842182-11.4972458,9.7137356-15.3967743  c6.7678566-4.9519033,15.9534111-6.9700003,25.2009888-5.5369406c7.4736099,1.158433,17.6696701,5.9637556,25.5593109,15.2126837  c0,0-22.8349762-39.4207916-56.1144981-20.3555756C23.6889954,16.0402775,18.6534538,28.3230343,17.5041275,35.7431297z" fill="#393E46"></path><path xmlns="http://www.w3.org/2000/svg" d="M82.5444794,65.2562332c1.6589203-8.5548134,0.1250305-17.1406708-4.2073517-23.5571098  c-3.330925-4.9307785-8.1085968-8.2168121-13.4566498-9.2532387c-5.639122-1.0937653-11.260994,0.0038795-15.8300591,3.0911674  c-1.2817879,0.8631134-2.4307365,1.8538399-3.4404335,2.9467392c2.2569427-0.8937225,4.8587837-1.083847,7.6516113-0.5423546  c11.639946,2.2565117,19.1514435,14.1956596,16.7440948,26.6155167c-1.1610718,5.9891891-4.815239,11.3235016-10.2879944,15.0186768  c-6.9493065,4.6923676-16.2047043,6.3638382-25.3924103,4.5819931C26.901741,82.7185287,16.8940315,77.531662,9.358448,67.9917221  c0,0,21.331213,40.2545929,55.3068428,22.4577484C75.6210403,84.7116241,81.115303,72.6280441,82.5444794,65.2562332z" fill="#393E46"></path><path xmlns="http://www.w3.org/2000/svg" d="M35.7256317,82.8797684c8.6108131,1.3343353,17.1332397-0.5216599,23.3815918-5.0933075  c4.8010101-3.5136719,7.9046249-8.4129791,8.7393951-13.7964401c0.8790588-5.6761932-0.4294586-11.2527962-3.6857452-15.7020111  c-0.912262-1.2481079-1.9456673-2.3595467-3.0760269-3.326561c0.9786568,2.2224503,1.2674561,4.8148079,0.8312111,7.6257439  c-1.8159523,11.7171211-13.4632301,19.6730995-25.9645691,17.73563c-6.0292854-0.9338226-11.4972458-4.3845444-15.3959103-9.713253  c-4.9519043-6.7678032-6.9708633-15.9537888-5.5373726-25.2014236c1.1584339-7.4735546,5.9637547-17.6696663,15.2126827-25.5592575  c0,0-39.420845,22.8349762-20.3560066,56.1148262C16.0222969,76.6948471,28.3046761,81.7299576,35.7256317,82.8797684z" fill="#393E46"></path><path xmlns="http://www.w3.org/2000/svg" d="M90.4318619,35.7181244c-5.7382202-10.9553223-17.8222275-16.4500122-25.193985-17.8787613  c-8.5544395-1.6589699-17.1406746-0.1245956-23.5566788,4.2073517c-4.9308357,3.3308735-8.2168694,8.1081715-9.253727,13.4567108  c-1.0937634,5.6395493,0.0038795,11.2609901,3.0911674,15.8300552c0.8631134,1.2821655,1.8538399,2.4311142,2.946743,3.4403763  c-0.8941536-2.2569389-1.0837975-4.8587799-0.5423584-7.6516075c2.2565117-11.6399498,14.1961441-19.1514435,26.6150856-16.7440414  c5.9896774,1.1614513,11.3239899,4.81567,15.019104,10.288372c4.6928558,6.9488754,6.3634644,16.2042694,4.582489,25.391983  c-1.4395828,7.423111-6.6264496,17.4308167-16.1668243,24.9668884  C67.9728775,91.0254517,108.2283325,69.6942368,90.4318619,35.7181244z" fill="#393E46"></path></g><g id="SvgjsG1997" featurekey="nameFeature-0" transform="matrix(1.3260899125220962,0,0,1.3260899125220962,55.61543310650261,153.8229730366844)" fill="#393E46"><path d="M5.84 14.399999999999999 c-0.04 0.2 -0.08 0.32 -0.08 0.48 c0 5.12 0 10.2 0.04 15.32 c0 0.08 0.08 0.2 0.12 0.36 c0.64 -0.04 1.28 -0.16 1.92 -0.24 s1.32 -0.12 2 -0.12 c0.32 0 0.68 0.16 0.96 0.32 c0.4 0.2 0.4 0.64 0 0.88 c-0.4 0.2 -0.84 0.32 -1.28 0.4 c-0.84 0.2 -1.72 0.32 -2.56 0.48 c-0.36 0.08 -0.68 0.16 -1.04 0.28 c-0.04 1.44 0.04 2.88 0.28 4.28 c0.04 0.16 0.12 0.32 0.16 0.44 c0.16 0.48 0.48 0.76 1 0.8 c0.56 0 1.12 0.04 1.68 0 c1.04 -0.08 2.04 -0.16 3.04 -0.24 c0.48 -0.04 0.92 0 1.36 0.04 c0.2 0 0.4 0.08 0.56 0.12 c0.44 0.12 0.72 0.44 0.68 0.68 c-0.04 0.32 -0.32 0.48 -0.6 0.6 c-0.32 0.08 -0.68 0.2 -1 0.24 c-1.56 0.12 -3.08 0.28 -4.64 0.4 c-1.08 0.08 -2.2 0 -3.28 -0.2 c-0.48 -0.08 -0.96 -0.24 -1.4 -0.4 c-0.8 -0.36 -1.4 -0.96 -1.68 -1.76 c-0.2 -0.6 -0.4 -1.24 -0.48 -1.88 c-0.16 -1.96 -0.32 -3.92 -0.44 -5.88 c-0.2 -3 -0.12 -6.04 -0.04 -9.08 c0.04 -1.6 0.12 -3.24 0.2 -4.88 c0 -0.4 0.04 -0.8 0.04 -1.24 c-0.32 -0.2 -0.6 -0.36 -0.88 -0.56 c-0.24 -0.2 -0.28 -0.6 0.04 -0.76 c0.28 -0.2 0.64 -0.4 1 -0.48 c0.8 -0.2 1.64 -0.36 2.44 -0.44 c2.52 -0.2 5.08 -0.28 7.6 0.16 c0.44 0.08 0.88 0.24 1.24 0.44 c0.48 0.24 0.44 0.76 -0.04 0.96 c-0.36 0.2 -0.84 0.36 -1.28 0.4 c-0.6 0.08 -1.2 0 -1.8 0 l-3.16 0 c-0.24 0 -0.44 0.04 -0.68 0.08 z M28.094 24.240000000000002 c0.48 0.2 0.6 0.6 0.32 1.04 c-0.12 0.28 -0.28 0.48 -0.44 0.72 c-2.4 3.52 -4.52 7.16 -6.36 11 c-0.24 0.56 -0.56 1.08 -0.8 1.64 c-0.44 0.76 -1.12 1.16 -2 1.16 c-0.24 0 -0.56 0.04 -0.84 0 c-1 -0.12 -1.4 -0.4 -1.6 -1.44 c-0.24 -1.24 -0.48 -2.52 -0.68 -3.76 c-0.4 -2.08 -0.76 -4.16 -1.12 -6.28 c-0.16 -0.84 -0.28 -1.72 -0.36 -2.64 c-0.08 -0.8 0.2 -1.08 1 -1.24 c0.32 -0.04 0.68 -0.04 1 0 c0.92 0.04 1.2 0.36 1.36 1.32 c0.48 2.52 0.96 5.08 1.4 7.6 c0.04 0.16 0.08 0.32 0.2 0.72 c0.28 -0.48 0.48 -0.72 0.64 -1 c1.48 -2.32 2.92 -4.6 4.4 -6.88 c0.24 -0.4 0.52 -0.72 0.72 -1.04 c0.76 -1.2 2.24 -1.2 3.16 -0.92 z M36.348 24.2 c1.24 0.2 1.72 0.48 3.12 1.64 c0.16 0.12 0.28 0.36 0.16 0.56 c-0.12 0.36 -0.4 0.6 -0.64 0.88 c-1.08 1.36 -2.24 2.64 -3.36 4.04 c-0.88 1.12 -1.8 2.32 -2.68 3.44 c0.08 0.76 0.44 1.32 0.84 1.84 c0.52 0.76 1.4 1 2.36 0.72 c0.56 -0.16 1.08 -0.24 1.64 -0.36 c0.28 -0.04 0.6 0 0.84 0.12 c0.36 0.04 0.72 0.2 0.8 0.68 c0.04 0.36 -0.16 0.6 -0.44 0.8 c-0.6 0.44 -1.36 0.68 -2.12 0.84 c-1.96 0.32 -3.92 0.12 -5.84 -0.56 c-1.04 -0.36 -1.8 -1 -2.28 -2 c-1.32 -2.44 -1.72 -5 -1.04 -7.64 c0.72 -2.8 2.6 -4.4 5.4 -4.92 c1.12 -0.16 2.2 -0.28 3.24 -0.08 z M32.388 31.119999999999997 c0.52 -0.44 3.16 -3.72 3.56 -4.36 c-1.04 -0.92 -1.64 -0.92 -2.48 0.04 c-0.16 0.2 -0.28 0.48 -0.44 0.68 c-0.6 1.04 -0.84 2.2 -0.8 3.4 c0 0.2 0.12 0.32 0.16 0.24 z M51.002 27.4 c0 1.68 -0.08 3.32 -0.12 4.96 c-0.04 1.72 -0.08 3.4 -0.12 5.12 c0 0.64 0.04 1.2 0.08 1.88 c-0.8 0.6 -1.64 0.56 -2.48 0.16 c-0.28 -0.12 -0.44 -0.4 -0.48 -0.72 c-0.08 -0.52 -0.16 -1.04 -0.2 -1.52 c-0.12 -2.48 -0.12 -4.92 0.08 -7.4 c0.04 -0.8 0.04 -1.6 0.12 -2.36 c0 -0.24 -0.08 -0.44 -0.12 -0.64 c-0.24 -0.12 -0.32 0.04 -0.44 0.2 c-0.4 0.76 -0.84 1.56 -1.24 2.36 c-1.12 2.48 -1.88 5 -2.64 7.6 c-0.04 0.12 -0.04 0.16 -0.04 0.24 c-0.28 1.08 -0.8 1.44 -1.96 1.36 c-0.16 0 -0.32 -0.04 -0.52 -0.08 c-0.6 -0.2 -0.76 -0.36 -0.76 -1.04 c-0.08 -3.68 -0.28 -7.32 -0.12 -11 c0 -0.12 0.04 -0.2 0.04 -0.32 c0 -0.84 0.2 -1.24 1.36 -1.36 c0.2 0 0.4 0.04 0.56 0.04 c0.8 0.16 1.04 0.44 0.96 1.2 c0 0.72 -0.04 1.44 -0.08 2.12 c0 0.2 0.04 0.4 0.04 0.6 c0.36 -0.08 0.4 -0.32 0.48 -0.52 c0.48 -0.92 0.96 -1.84 1.72 -2.56 c1.12 -1.24 2.52 -1.6 4.12 -1.2 c0.8 0.2 1.32 0.68 1.56 1.48 c0.08 0.48 0.2 0.96 0.2 1.4 z M62.096000000000004 23.96 c0.12 0.04 0.24 0.24 0.24 0.44 c0.04 0.12 -0.12 0.28 -0.2 0.32 c-0.4 0.16 -0.76 0.28 -1.12 0.32 c-0.84 0.08 -1.68 0.12 -2.52 0.2 c-0.24 0.4 -0.2 0.84 -0.24 1.24 c-0.2 3.28 -0.36 6.48 -0.56 9.72 c-0.04 0.64 -0.12 1.36 -0.16 2 c-0.04 0.4 -0.28 0.68 -0.68 0.76 s-0.76 0.08 -1.16 0.08 c-0.84 -0.08 -1.04 -0.28 -1.04 -1.2 c0.08 -3.68 0.2 -7.32 0.24 -11 c0.04 -0.44 0.04 -0.84 0.04 -1.36 l-1.88 0 c-0.44 0 -0.92 -0.12 -1.32 -0.32 c-0.28 -0.2 -0.28 -0.64 0 -0.76 c0.36 -0.12 0.76 -0.28 1.08 -0.36 c0.68 -0.08 1.4 -0.12 2.12 -0.2 c0.04 -0.36 0.08 -0.64 0.08 -0.96 c0.08 -1.28 0.12 -2.6 0.2 -3.88 c0 -1.24 0.36 -1.84 1.56 -1.92 c0.28 -0.04 0.6 0 0.88 0.04 c0.84 0.16 1 0.36 1 1.2 c-0.04 1 -0.08 2.04 -0.12 3.08 c-0.04 0.72 -0.04 1.44 -0.08 2.2 c0.24 0.08 0.44 0.12 0.68 0.12 c0.56 0 1.16 -0.04 1.72 0 c0.4 0 0.8 0.12 1.24 0.24 z M64.47 26.36 c0.36 0.12 0.6 0.36 0.6 0.8 c0 0.24 0 0.48 -0.04 0.72 c-0.32 3.52 -0.36 7 -0.2 10.48 c0.04 0.68 -0.2 1 -0.84 1.16 c-0.32 0.04 -0.64 0.08 -0.96 0.04 c-0.92 -0.08 -1.28 -0.4 -1.36 -1.32 c-0.08 -0.76 -0.12 -1.52 -0.16 -2.24 l0 -3.12 l0 0 l0 -4.16 c0.04 -0.56 0.12 -1.08 0.2 -1.6 c0.04 -0.4 0.32 -0.64 0.68 -0.76 c0.68 -0.24 1.4 -0.24 2.08 0 z M65.51 21.4 c0.08 0.64 0 1.28 -0.24 1.88 c-0.12 0.4 -0.32 0.8 -0.64 1.08 c-0.56 0.6 -1.48 0.6 -2.04 -0.04 c-0.2 -0.24 -0.36 -0.52 -0.44 -0.84 c-0.24 -1 0 -1.88 0.76 -2.68 c0.44 -0.44 0.96 -0.56 1.52 -0.64 c0.32 -0.08 0.56 0.08 0.72 0.28 c0.24 0.28 0.36 0.64 0.36 0.96 z M78.084 28.240000000000002 c0.08 1.28 0.12 2.52 0.08 3.8 c-0.12 2.4 -0.24 4.8 -0.4 7.2 l0 0.52 c-0.04 0.28 -0.2 0.44 -0.4 0.52 c-0.48 0.24 -0.96 0.28 -1.48 0.24 c-0.92 -0.12 -1.12 -0.4 -1.12 -1.28 c-0.04 -0.36 0 -0.76 0 -1.16 c-0.28 0.12 -0.44 0.12 -0.52 0.2 c-0.16 0.12 -0.32 0.2 -0.44 0.32 c-1.64 1.36 -3.44 1.52 -5.4 0.96 c-1.56 -0.44 -2.36 -1.6 -2.64 -3.12 c-0.2 -1.52 0.44 -2.76 1.72 -3.64 c0.44 -0.32 1.04 -0.56 1.64 -0.72 c1.68 -0.52 3.48 -0.56 5.2 -0.36 c0.16 0 0.4 0 0.56 0.08 c0.16 -0.8 0.2 -3.4 0.04 -4.52 c-0.12 -0.56 -0.16 -1.16 -0.52 -1.72 c-0.16 0.04 -0.36 0.04 -0.52 0.12 c-0.76 0.56 -1.48 1.08 -2.24 1.64 c-0.8 0.6 -1.64 0.6 -2.48 0.28 c-0.32 -0.16 -0.44 -0.44 -0.2 -0.68 c0.04 -0.12 0.08 -0.2 0.2 -0.28 c1.04 -1.16 2.32 -2 3.8 -2.6 c0.84 -0.28 1.76 -0.36 2.6 -0.24 c1.04 0.16 1.76 0.68 2.12 1.68 c0.24 0.92 0.4 1.8 0.4 2.76 z M74.804 36 c0 -0.56 0.08 -1.08 0.08 -1.72 c-1.24 -0.4 -2.28 -0.56 -3.24 0.4 c-0.72 0.68 -1.2 1.56 -0.8 2.72 c0.68 -0.24 1.28 -0.56 1.96 -0.76 c0.64 -0.24 1.32 -0.4 2 -0.64 z M84.61800000000001 14.399999999999999 c-0.04 0.2 -0.08 0.32 -0.08 0.48 c0 5.12 0 10.2 0.04 15.32 c0 0.08 0.08 0.2 0.12 0.36 c0.64 -0.04 1.28 -0.16 1.92 -0.24 s1.32 -0.12 2 -0.12 c0.32 0 0.68 0.16 0.96 0.32 c0.4 0.2 0.4 0.64 0 0.88 c-0.4 0.2 -0.84 0.32 -1.28 0.4 c-0.84 0.2 -1.72 0.32 -2.56 0.48 c-0.36 0.08 -0.68 0.16 -1.04 0.28 c-0.04 1.44 0.04 2.88 0.28 4.28 c0.04 0.16 0.12 0.32 0.16 0.44 c0.16 0.48 0.48 0.76 1 0.8 c0.56 0 1.12 0.04 1.68 0 c1.04 -0.08 2.04 -0.16 3.04 -0.24 c0.48 -0.04 0.92 0 1.36 0.04 c0.2 0 0.4 0.08 0.56 0.12 c0.44 0.12 0.72 0.44 0.68 0.68 c-0.04 0.32 -0.32 0.48 -0.6 0.6 c-0.32 0.08 -0.68 0.2 -1 0.24 c-1.56 0.12 -3.08 0.28 -4.64 0.4 c-1.08 0.08 -2.2 0 -3.28 -0.2 c-0.48 -0.08 -0.96 -0.24 -1.4 -0.4 c-0.8 -0.36 -1.4 -0.96 -1.68 -1.76 c-0.2 -0.6 -0.4 -1.24 -0.48 -1.88 c-0.16 -1.96 -0.32 -3.92 -0.44 -5.88 c-0.2 -3 -0.12 -6.04 -0.04 -9.08 c0.04 -1.6 0.12 -3.24 0.2 -4.88 c0 -0.4 0.04 -0.8 0.04 -1.24 c-0.32 -0.2 -0.6 -0.36 -0.88 -0.56 c-0.24 -0.2 -0.28 -0.6 0.04 -0.76 c0.28 -0.2 0.64 -0.4 1 -0.48 c0.8 -0.2 1.64 -0.36 2.44 -0.44 c2.52 -0.2 5.08 -0.28 7.6 0.16 c0.44 0.08 0.88 0.24 1.24 0.44 c0.48 0.24 0.44 0.76 -0.04 0.96 c-0.36 0.2 -0.84 0.36 -1.28 0.4 c-0.6 0.08 -1.2 0 -1.8 0 l-3.16 0 c-0.24 0 -0.44 0.04 -0.68 0.08 z M106.87200000000001 24.240000000000002 c0.48 0.2 0.6 0.6 0.32 1.04 c-0.12 0.28 -0.28 0.48 -0.44 0.72 c-2.4 3.52 -4.52 7.16 -6.36 11 c-0.24 0.56 -0.56 1.08 -0.8 1.64 c-0.44 0.76 -1.12 1.16 -2 1.16 c-0.24 0 -0.56 0.04 -0.84 0 c-1 -0.12 -1.4 -0.4 -1.6 -1.44 c-0.24 -1.24 -0.48 -2.52 -0.68 -3.76 c-0.4 -2.08 -0.76 -4.16 -1.12 -6.28 c-0.16 -0.84 -0.28 -1.72 -0.36 -2.64 c-0.08 -0.8 0.2 -1.08 1 -1.24 c0.32 -0.04 0.68 -0.04 1 0 c0.92 0.04 1.2 0.36 1.36 1.32 c0.48 2.52 0.96 5.08 1.4 7.6 c0.04 0.16 0.08 0.32 0.2 0.72 c0.28 -0.48 0.48 -0.72 0.64 -1 c1.48 -2.32 2.92 -4.6 4.4 -6.88 c0.24 -0.4 0.52 -0.72 0.72 -1.04 c0.76 -1.2 2.24 -1.2 3.16 -0.92 z M115.126 24.2 c1.24 0.2 1.72 0.48 3.12 1.64 c0.16 0.12 0.28 0.36 0.16 0.56 c-0.12 0.36 -0.4 0.6 -0.64 0.88 c-1.08 1.36 -2.24 2.64 -3.36 4.04 c-0.88 1.12 -1.8 2.32 -2.68 3.44 c0.08 0.76 0.44 1.32 0.84 1.84 c0.52 0.76 1.4 1 2.36 0.72 c0.56 -0.16 1.08 -0.24 1.64 -0.36 c0.28 -0.04 0.6 0 0.84 0.12 c0.36 0.04 0.72 0.2 0.8 0.68 c0.04 0.36 -0.16 0.6 -0.44 0.8 c-0.6 0.44 -1.36 0.68 -2.12 0.84 c-1.96 0.32 -3.92 0.12 -5.84 -0.56 c-1.04 -0.36 -1.8 -1 -2.28 -2 c-1.32 -2.44 -1.72 -5 -1.04 -7.64 c0.72 -2.8 2.6 -4.4 5.4 -4.92 c1.12 -0.16 2.2 -0.28 3.24 -0.08 z M111.16600000000001 31.119999999999997 c0.52 -0.44 3.16 -3.72 3.56 -4.36 c-1.04 -0.92 -1.64 -0.92 -2.48 0.04 c-0.16 0.2 -0.28 0.48 -0.44 0.68 c-0.6 1.04 -0.84 2.2 -0.8 3.4 c0 0.2 0.12 0.32 0.16 0.24 z M129.78 27.4 c0 1.68 -0.08 3.32 -0.12 4.96 c-0.04 1.72 -0.08 3.4 -0.12 5.12 c0 0.64 0.04 1.2 0.08 1.88 c-0.8 0.6 -1.64 0.56 -2.48 0.16 c-0.28 -0.12 -0.44 -0.4 -0.48 -0.72 c-0.08 -0.52 -0.16 -1.04 -0.2 -1.52 c-0.12 -2.48 -0.12 -4.92 0.08 -7.4 c0.04 -0.8 0.04 -1.6 0.12 -2.36 c0 -0.24 -0.08 -0.44 -0.12 -0.64 c-0.24 -0.12 -0.32 0.04 -0.44 0.2 c-0.4 0.76 -0.84 1.56 -1.24 2.36 c-1.12 2.48 -1.88 5 -2.64 7.6 c-0.04 0.12 -0.04 0.16 -0.04 0.24 c-0.28 1.08 -0.8 1.44 -1.96 1.36 c-0.16 0 -0.32 -0.04 -0.52 -0.08 c-0.6 -0.2 -0.76 -0.36 -0.76 -1.04 c-0.08 -3.68 -0.28 -7.32 -0.12 -11 c0 -0.12 0.04 -0.2 0.04 -0.32 c0 -0.84 0.2 -1.24 1.36 -1.36 c0.2 0 0.4 0.04 0.56 0.04 c0.8 0.16 1.04 0.44 0.96 1.2 c0 0.72 -0.04 1.44 -0.08 2.12 c0 0.2 0.04 0.4 0.04 0.6 c0.36 -0.08 0.4 -0.32 0.48 -0.52 c0.48 -0.92 0.96 -1.84 1.72 -2.56 c1.12 -1.24 2.52 -1.6 4.12 -1.2 c0.8 0.2 1.32 0.68 1.56 1.48 c0.08 0.48 0.2 0.96 0.2 1.4 z M140.87400000000002 23.96 c0.12 0.04 0.24 0.24 0.24 0.44 c0.04 0.12 -0.12 0.28 -0.2 0.32 c-0.4 0.16 -0.76 0.28 -1.12 0.32 c-0.84 0.08 -1.68 0.12 -2.52 0.2 c-0.24 0.4 -0.2 0.84 -0.24 1.24 c-0.2 3.28 -0.36 6.48 -0.56 9.72 c-0.04 0.64 -0.12 1.36 -0.16 2 c-0.04 0.4 -0.28 0.68 -0.68 0.76 s-0.76 0.08 -1.16 0.08 c-0.84 -0.08 -1.04 -0.28 -1.04 -1.2 c0.08 -3.68 0.2 -7.32 0.24 -11 c0.04 -0.44 0.04 -0.84 0.04 -1.36 l-1.88 0 c-0.44 0 -0.92 -0.12 -1.32 -0.32 c-0.28 -0.2 -0.28 -0.64 0 -0.76 c0.36 -0.12 0.76 -0.28 1.08 -0.36 c0.68 -0.08 1.4 -0.12 2.12 -0.2 c0.04 -0.36 0.08 -0.64 0.08 -0.96 c0.08 -1.28 0.12 -2.6 0.2 -3.88 c0 -1.24 0.36 -1.84 1.56 -1.92 c0.28 -0.04 0.6 0 0.88 0.04 c0.84 0.16 1 0.36 1 1.2 c-0.04 1 -0.08 2.04 -0.12 3.08 c-0.04 0.72 -0.04 1.44 -0.08 2.2 c0.24 0.08 0.44 0.12 0.68 0.12 c0.56 0 1.16 -0.04 1.72 0 c0.4 0 0.8 0.12 1.24 0.24 z M150.64800000000002 33.32 c0.52 0.68 0.56 1.52 0.32 2.36 c-0.24 0.76 -0.64 1.4 -1.2 1.92 c-1.92 2.04 -4.24 3 -6.92 3.08 c-0.8 0 -1.6 0 -2.4 -0.36 c-1.28 -0.56 -1.72 -1.52 -1.36 -2.96 c0.36 -1.48 1.2 -2.64 2.32 -3.48 c0.88 -0.64 1.88 -0.64 2.84 -0.4 c0.36 0.08 0.68 0.28 0.72 0.72 c0.04 0.4 -0.16 0.76 -0.6 0.88 c-1.08 0.36 -1.44 1.36 -1.88 2.36 c-0.08 0.24 -0.08 0.52 -0.08 0.76 c-0.04 0.6 0.28 0.84 0.84 0.76 c1.64 -0.36 2.88 -1.28 3.68 -2.88 c0.56 -1.04 0.36 -1.96 -0.44 -2.72 c-0.64 -0.48 -1.28 -0.92 -1.96 -1.32 c-0.72 -0.44 -1.48 -0.8 -2.16 -1.24 c-0.48 -0.28 -0.92 -0.64 -1.28 -1.08 c-0.64 -0.68 -0.68 -1.52 -0.2 -2.28 c1.08 -1.52 2.44 -2.56 4.28 -2.68 c0.88 -0.04 1.72 0.08 2.52 0.36 c0.4 0.16 0.72 0.32 1.08 0.48 c0.4 0.28 0.6 0.56 0.48 0.84 c-0.08 0.4 -0.4 0.56 -0.76 0.6 c-0.76 0.2 -1.4 0.16 -2.12 -0.2 c-0.4 -0.2 -0.68 -0.04 -1.04 0.24 c-1.12 1.12 -1.08 1.68 0.2 2.48 c0.64 0.4 1.32 0.76 1.92 1.16 c0.76 0.44 1.52 0.88 2.16 1.4 c0.44 0.32 0.8 0.76 1.04 1.2 z" fill="#393E46"></path></g><g id="SvgjsG1998" featurekey="sloganFeature-0" transform="matrix(0.8468299439977879,0,0,0.8468299439977879,75.45802834320543,219.40944123127338)" fill="#393E46"><path d="M0.68 19.64 c0 -0.48 0.36 -0.56 0.74 -0.68 l0.16 0.12 c0.18 0 0.28 -0.06 0.46 -0.06 c0.16 0 0.16 0.06 0.28 0.06 c0.16 0 0.28 -0.12 0.44 -0.12 s0.62 0.02 0.72 0.14 c0.46 -0.18 0.58 -0.56 0.98 -0.8 c0.02 0.02 0 -0.08 -0.06 -0.16 c0.2 -0.3 0.22 -0.36 0.22 -0.72 l-0.04 0 c-0.06 0 -0.06 -0.4 -0.06 -0.46 l0 -0.16 c0 0 0.24 -0.78 0.24 -0.84 l0.06 -0.06 c0 -0.36 -0.06 -0.92 -0.18 -1.12 c0 -0.18 0.18 -0.46 0.2 -0.68 c0 -0.32 -0.14 -0.7 -0.12 -1.12 l0.04 0 c0.12 0 0.14 -0.2 0.14 -0.38 c0 -0.22 -0.1 -0.68 -0.1 -0.9 c0 -0.08 0.02 -0.12 0.06 -0.18 l-0.06 -0.1 c0 -0.28 0.08 -0.3 0.08 -0.5 c0 -0.04 0 -0.1 -0.02 -0.18 l0.06 0.12 l0 -0.12 c0 0 0 -0.1 -0.06 -0.1 l-0.12 0.04 c0.06 -0.04 0 -0.5 0.12 -0.5 l0.02 -1 c-0.02 -0.12 -0.06 -0.22 -0.18 -0.28 c0.14 -0.08 0.24 -0.68 0.24 -1.02 c0 -0.1 -0.06 -0.16 -0.18 -0.28 c0 -0.1 0.08 -0.22 0.08 -0.32 c0 -0.18 -0.28 -1.46 -0.44 -1.58 c-0.18 -0.1 -0.4 -0.1 -0.56 -0.22 l-1.86 -0.02 c-0.08 0.04 -0.16 0.06 -0.22 0.06 l-0.12 -0.06 c-0.04 0 -0.12 0.08 -0.22 0.12 c-0.06 -0.02 -0.6 -0.18 -0.78 -0.36 c0.02 -0.62 0.64 -0.78 1.14 -0.78 l0 0.12 c0.34 0 0.62 -0.12 0.84 -0.12 s0.4 0.12 0.62 0.14 c0.26 0 0.5 -0.1 0.78 -0.06 l0.06 0.06 l0.9 0 c0.08 0.02 0.2 0.08 0.22 0.06 c0.1 0 0.54 -0.16 0.66 -0.16 c0 0 0.16 0.14 0.18 0.18 c0.16 0 0.4 -0.06 0.5 -0.18 c0.06 0 0.22 0.12 0.22 0.18 l0 -0.12 c0.12 0 0.18 0.06 0.28 0.06 c0.12 0 0.18 -0.06 0.28 -0.06 l0.06 0.12 c0.28 0 0.56 -0.2 0.78 -0.2 c0.2 0 0.34 0.04 0.52 0.1 l0.16 -0.06 c0.18 -0.04 0.24 0.06 0.4 0.06 c0.28 -0.1 0.4 0.02 0.5 -0.22 c0.32 0.16 0.36 0.14 0.62 0.14 c0.48 0 0.58 -0.24 0.84 -0.24 c0.04 0 0.16 0.18 0.28 0.24 c0.06 0.02 0.18 -0.12 0.5 -0.12 c0.24 -0.02 0.3 0.12 0.38 0.18 l0.12 -0.04 c0.06 0.1 0.12 0.28 0.12 0.44 c-0.02 0.54 -0.58 0.48 -0.92 0.48 s-0.74 -0.06 -1.18 -0.04 l-0.12 0.04 c-0.58 0 -1.1 -0.06 -1.62 -0.06 c-0.1 0 -0.78 0.38 -0.78 0.44 s0.02 0.14 0.06 0.22 l-0.18 0.22 c0 0.1 0.02 0.08 0.06 0.12 l0 0.78 c-0.06 0.06 -0.1 0.22 -0.1 0.28 l0.08 0.18 c0 0.18 -0.14 0.36 -0.16 0.38 c0 0.12 0.1 0.18 0.16 0.18 l0 0.88 c-0.1 0.12 -0.1 0.68 -0.12 0.9 c0 0.12 0.16 0.28 0.16 0.34 c0 0.22 -0.16 0.5 -0.16 0.68 c0 0.1 0.04 0.6 0.16 0.66 c-0.06 0 -0.16 0.12 -0.16 0.18 c0 0.04 0.02 0.5 0.08 0.6 l-0.02 2.14 c-0.04 0.06 -0.06 0.08 -0.06 0.16 l0.12 0.18 l-0.06 0.16 c-0.02 0.16 0.06 0.2 0.06 0.34 l-0.06 0.06 c0 0.16 0.06 0.28 0.06 0.44 c0 0.12 -0.06 0.22 -0.06 0.4 c0 0.1 0.12 0.16 0.12 0.28 c-0.16 0 -0.24 0.22 -0.24 0.28 l0.1 0.22 c0 0.38 0.02 0.6 -0.06 1 l0.06 0.06 c0 0.06 -0.02 0.12 -0.06 0.18 c0 0.04 0.12 0.28 0.12 0.32 c-0.06 0.1 -0.08 0.22 -0.08 0.34 c0.2 0 0.76 -0.06 1.18 -0.06 c0.06 0 0.16 0.12 0.22 0.12 c0.18 0 0.28 -0.12 0.42 -0.16 c0.06 -0.1 -0.02 0.1 0.28 0.1 c0.14 0 0.3 -0.04 0.48 -0.04 c0.28 0 0.56 0.12 0.84 0.12 l0.12 -0.06 l0.16 0.06 c0.08 -0.04 0.16 -0.06 0.22 -0.06 s0.12 0.06 0.22 0.06 c0.04 0.04 0.12 -0.06 0.18 -0.12 c0.18 0 0.56 0.14 0.72 0.14 c0.12 0 0.46 -0.06 0.58 -0.16 l0.5 0 c-0.04 0.04 0.44 0.1 0.54 0.12 l0.24 -0.06 c0 -0.04 0.08 0.02 0.1 0.12 c0.3 -0.28 0.64 -0.16 0.92 -0.4 l0.74 0 c0.4 -0.4 1.06 -0.28 1.56 -0.7 c0.12 -0.12 0.34 -0.34 0.44 -0.4 c0.06 0.04 0.12 0.06 0.18 0.06 s0.28 -0.28 0.34 -0.34 l0.04 0.02 c0.28 -0.22 0.34 -0.38 0.48 -0.84 l0.1 -0.04 c0.06 -0.28 0.18 -0.68 0.46 -0.84 c-0.06 0 -0.12 -0.06 -0.18 -0.12 c0.24 0 0.24 -0.44 0.62 -0.74 c0.06 -0.1 0.04 -1.22 0.26 -1.22 c0.04 0 0.06 0.02 0.1 0.06 c0.06 -0.34 0.12 -1 0.54 -1 c0.36 0 0.46 0.48 0.46 0.78 l-0.04 0.06 l0.04 0.18 c0 0.22 -0.1 0.52 -0.1 0.74 c0 0.06 0.04 0.1 0.04 0.14 c0 0.24 -0.12 0.4 -0.12 0.62 c0 0.24 0.16 0.62 0.16 0.84 c0 0.2 -0.18 0.4 -0.16 0.52 l0.12 0.16 c-0.02 0.28 -0.14 0.5 -0.14 0.72 c0 0.36 0 0.28 0.06 0.4 l-0.06 0.22 c-0.02 0.44 0.06 0.8 0.14 1.02 c-0.02 0.66 -0.28 0.72 -0.66 0.92 c-0.28 -0.06 -0.4 -0.06 -0.68 -0.06 c-0.18 0 -0.38 0.04 -0.38 0.24 l0 -0.18 s-0.62 -0.1 -0.9 -0.1 l-0.18 0.04 c-0.28 -0.02 -0.58 -0.06 -0.84 -0.06 l-0.16 0.1 l-0.22 -0.1 c-0.2 -0.04 -0.94 0.14 -1.36 0.14 c-0.12 0 -0.18 0 -0.26 -0.12 c-0.42 -0.02 -0.84 0.18 -1.3 0.18 c0 -0.04 -0.48 -0.14 -0.72 -0.14 l-0.06 0.06 c-0.06 0 -0.12 -0.02 -0.18 -0.06 l-0.66 0 l-0.12 0.06 l-0.1 -0.06 c-0.32 0 -0.76 0.16 -1.04 0.16 c-0.12 0 -0.24 -0.18 -0.42 -0.18 c-0.2 0 -0.2 0 -0.28 0.06 l-0.22 -0.06 c-0.12 0 -0.28 0.12 -0.34 0.12 c-0.12 0 -0.12 -0.06 -0.18 -0.06 c-0.16 0 -0.44 0 -0.5 0.16 l0 -0.16 c-0.16 0 -0.28 -0.14 -0.44 -0.14 c-0.18 0 -0.5 0.06 -0.62 0.18 c0.02 -0.02 0.02 -0.04 0.02 -0.04 c0 -0.08 -0.24 -0.08 -0.24 -0.08 c-0.12 0 -0.22 0 -0.28 0.06 l-1.34 -0.02 c0 -0.06 -0.12 -0.12 -0.18 -0.12 l-0.16 0.12 c-0.24 0.02 -0.48 -0.12 -0.68 -0.12 c-0.1 0 -0.22 0.06 -0.28 0.06 c-0.08 0 -0.22 -0.02 -0.34 -0.06 l-0.22 0.12 l-0.12 -0.08 l-1 0 l-0.12 0.06 c-0.16 -0.02 -0.26 -0.02 -0.38 -0.02 c-0.28 0 -0.44 0.12 -0.9 0.12 l-0.12 -0.06 l-0.22 0.06 c-0.1 0 -0.24 0 -0.38 -0.06 c-0.06 0 -0.18 0.1 -0.28 0.1 l0 -0.04 c-0.24 0.1 -0.34 0.1 -0.52 0.1 c-0.22 0 -0.56 -0.16 -0.56 -0.38 z M18 19.22 c-0.02 0 -0.04 0 -0.04 0.02 c0 0 0.02 0.02 0.04 0.02 c0.04 0 0.04 -0.02 0.04 -0.02 c0 -0.02 0 -0.02 -0.04 -0.02 z M15.16 18.86 c-0.04 0 -0.06 0.02 -0.06 0.06 c0 0.02 0.02 0.04 0.04 0.04 c0.04 0 0.06 -0.04 0.06 -0.06 s-0.02 -0.04 -0.04 -0.04 z M19.64 18.72 c-0.02 0 -0.04 0.02 -0.04 0.06 c0 0.02 0.02 0.06 0.04 0.06 c0.04 0 0.04 -0.04 0.04 -0.06 c0 -0.04 0 -0.06 -0.04 -0.06 z M4.34 18.54 c-0.02 0 -0.02 0.02 -0.02 0.04 c0 0.04 0 0.06 0.02 0.06 c0.04 0 0.04 -0.02 0.04 -0.06 c0 -0.02 0 -0.04 -0.04 -0.04 z M19.7 18.34 c-0.02 0 -0.04 0.02 -0.04 0.04 c0 0.04 0.02 0.06 0.04 0.06 c0.04 0 0.04 -0.02 0.04 -0.06 c0 -0.02 0 -0.04 -0.04 -0.04 z M5.3 18 l-0.02 0 s-0.02 0.02 -0.02 0.04 s0.02 0.04 0.04 0.06 c0.04 0 0.04 -0.02 0.04 -0.06 c0 -0.02 0 -0.04 -0.04 -0.04 z M5.8 17.66 c-0.02 0 -0.02 0.02 -0.02 0.04 c0 0.04 0 0.06 0.02 0.06 c0.04 0 0.04 -0.02 0.04 -0.06 c0 -0.02 0 -0.04 -0.04 -0.04 z M19.08 17.1 l-0.06 0.06 l-0.04 -0.02 c0.04 -0.02 0 -0.04 0.1 -0.04 z M19.66 16.44 c-0.02 0 -0.04 0.02 -0.04 0.04 c0 0.04 0.02 0.06 0.04 0.06 c0.04 0 0.04 -0.02 0.04 -0.06 c0 -0.02 0 -0.04 -0.04 -0.04 z M19.78 16.16 l0.06 0.04 l0 -0.1 z M21.36 12.64 c-0.02 0 -0.04 0 -0.04 0.04 s0.02 0.06 0.04 0.08 c0.04 0 0.04 -0.04 0.04 -0.06 c0 -0.04 0 -0.06 -0.04 -0.06 z M4.92 11.8 c-0.02 0 -0.04 0.02 -0.04 0.06 c0 0.02 0.02 0.06 0.04 0.06 s0.04 -0.04 0.04 -0.06 c0 -0.04 -0.02 -0.06 -0.04 -0.06 z M4.96 11.64 c-0.02 0 -0.02 0.02 -0.02 0.06 c0 0.02 0 0.06 0.02 0.06 c0.04 0 0.04 -0.04 0.04 -0.06 c0 -0.04 0 -0.06 -0.04 -0.06 z M7.38 11.54 l-0.06 0.06 l0.06 0 l0 -0.06 z M4.92 11.3 c-0.02 0 -0.04 0.02 -0.04 0.06 c0 0.02 0.02 0.06 0.04 0.06 s0.04 -0.04 0.04 -0.06 c0 -0.04 -0.02 -0.06 -0.04 -0.06 z M5.98 10.98 c-0.02 0 -0.04 0.02 -0.04 0.06 c0 0.02 0.02 0.06 0.04 0.06 c0.04 0 0.04 -0.04 0.04 -0.06 c0 -0.04 0 -0.06 -0.04 -0.06 z M5.52 10.88 c-0.02 0 -0.02 0.02 -0.02 0.04 c0 0.04 0 0.06 0.02 0.06 c0.04 0 0.04 -0.02 0.04 -0.06 c0 -0.02 0 -0.04 -0.04 -0.04 z M4.86 10.46 c-0.02 0 -0.04 0.02 -0.04 0.06 c0 0.02 0.02 0.06 0.04 0.06 c0.04 0 0.04 -0.04 0.04 -0.06 c0 -0.04 0 -0.06 -0.04 -0.06 z M7.68 7.880000000000001 c-0.02 0 -0.04 0.02 -0.04 0.04 c0 0.04 0.02 0.06 0.04 0.06 c0.04 0 0.04 -0.02 0.04 -0.06 c0 -0.02 0 -0.04 -0.04 -0.04 z M4.94 7.5 c-0.02 0 -0.04 0.02 -0.04 0.04 c0 0.04 0.02 0.06 0.04 0.06 s0.04 -0.02 0.04 -0.06 c0 -0.02 -0.02 -0.04 -0.04 -0.04 z M7.26 6.9 c-0.02 0 -0.04 0.02 -0.04 0.06 c0 0.02 0.02 0.06 0.04 0.06 s0.04 -0.04 0.04 -0.06 c0 -0.04 -0.02 -0.06 -0.04 -0.06 z M7.42 6.34 c-0.02 0 -0.04 0.02 -0.04 0.06 c0 0.02 0.02 0.06 0.04 0.06 c0.04 0 0.04 -0.04 0.04 -0.06 c0 -0.04 0 -0.06 -0.04 -0.06 z M7.48 6.220000000000001 l-0.06 0.06 l0.06 0 l0 -0.06 z M1.1 4.720000000000001 c0 -0.02 0 -0.04 -0.02 -0.04 c0 0 -0.02 0.02 -0.02 0.04 s0.02 0.04 0.02 0.04 c0.02 0 0.02 -0.02 0.02 -0.04 z M11.98 4.52 c0 -0.02 -0.02 -0.04 -0.02 -0.04 c-0.02 0 -0.04 0.02 -0.04 0.04 s0.02 0.04 0.04 0.04 c0 0 0.02 -0.02 0.02 -0.04 z M27.400000000000002 20.1 l-0.12 0.06 c-0.16 0 -0.68 -0.06 -0.72 -0.1 l-0.68 0 l-0.12 0.04 l-0.94 -0.02 c-0.12 0.06 -0.18 0.06 -0.34 0.06 c-0.18 0 -0.42 -0.12 -0.64 -0.12 c-0.12 0 -0.4 0.12 -0.42 0.12 c-0.22 0 -0.4 -0.24 -0.4 -0.44 c0 -0.44 0.52 -0.46 0.64 -0.46 c0.28 0 0.42 0.12 0.66 0.12 c0.5 0 1.52 -0.22 1.52 -1.16 l0.02 -1.96 c0.06 -0.16 0.06 -0.28 0.06 -0.44 c0 -0.28 -0.1 -0.5 -0.16 -0.68 c0.02 -0.44 0.18 -0.96 0.18 -1.46 c-0.12 -0.1 -0.16 -0.28 -0.16 -0.44 l0.04 -0.12 c0 -0.34 -0.08 -1.12 -0.36 -1.34 c-0.08 -0.08 -0.7 -0.26 -0.78 -0.36 l-0.84 0 c-0.08 -0.04 -0.2 -0.06 -0.24 -0.06 c0.02 0.08 -0.26 0.08 -0.28 0.12 l-0.56 -0.18 c-0.16 -0.06 -0.16 -0.34 -0.16 -0.46 c0 -0.44 0.68 -0.6 1 -0.6 c0.18 0 0.96 0.28 1.18 0.28 c0.06 0 0.22 -0.1 0.28 -0.16 c0.34 -0.04 0.5 -0.04 0.78 -0.04 c0.18 0 0.28 0.06 0.46 0.06 c0.42 0 0.84 -0.16 1.22 -0.16 c0.28 0 0.46 0.1 0.58 0.34 c0 0.04 -0.02 0.06 -0.02 0.1 c0 0.16 0.12 0.2 0.12 0.36 c0 0.28 -0.1 0.44 -0.16 0.66 c-0.02 0.22 0.1 0.32 0.1 0.52 c0 0.16 -0.04 0.22 -0.06 0.38 c0 0.4 0.1 1.36 0.1 1.62 c0 0.12 -0.16 0.18 -0.16 0.28 c0 0.24 0.14 0.46 0.14 0.68 c0 0.34 -0.1 0.74 -0.1 1.02 c0 -0.06 -0.02 0.2 0.1 0.32 c0 0.02 -0.08 0.28 -0.16 0.28 c0 0.26 0.02 0.92 0.14 1.02 l0 0.18 c0 0.38 0.16 0.8 0.4 1.16 c0.38 0.06 0.76 0.28 1.16 0.28 c0.32 0 0.74 -0.14 1.14 -0.14 c0.08 0.22 0.08 0.32 0.08 0.56 c0 0.36 -0.06 0.38 -0.22 0.38 c-0.6 0 -1.32 -0.18 -1.68 -0.18 c-0.22 0 -0.34 0.1 -0.5 0.1 c-0.18 0 -0.34 -0.04 -0.5 -0.04 c-0.08 0 -0.24 0.22 -0.34 0.16 c-0.06 0 -0.24 -0.14 -0.28 -0.14 z M25.28 6.42 c0 -0.72 0.9 -1.38 1.58 -1.38 c0.26 0 0.56 0.08 0.82 0.08 l0.08 0 c0.34 0.28 0.88 0.94 0.88 1.4 c-0.2 0.6 -0.56 1 -1.3 1.26 c-0.78 0.02 -2.06 -0.38 -2.06 -1.36 z M32.94 20.16 l-0.12 0.06 c-0.06 -0.06 -0.38 -0.18 -0.38 -0.44 c0 -0.34 0.32 -0.6 0.64 -0.6 c0.08 0 0.42 -0.02 0.54 0.12 c0.16 -0.06 0.38 -0.18 0.5 -0.34 c0 0.06 0.1 0.16 0.16 0.16 c0.18 0 0.28 -0.06 0.28 -0.22 l0.12 0 c0.02 -0.16 0.18 -0.34 0.18 -0.5 c0.02 -0.02 -0.02 -0.14 -0.06 -0.22 c0 -0.28 0.18 -0.52 0.18 -0.74 c0 -0.14 -0.02 -0.14 -0.06 -0.22 c0 -0.08 0.16 -0.2 0.12 -0.34 c0 -0.06 -0.04 -0.38 -0.04 -0.44 l-0.12 0.06 c-0.04 -0.24 0.18 -0.26 0.18 -0.46 c0 -0.16 -0.12 -0.22 -0.18 -0.38 l0.18 -0.06 c0 -0.04 -0.04 -0.2 -0.12 -0.28 c0 -0.04 0.12 -0.62 0.12 -0.9 c0 -0.06 -0.04 -0.22 -0.04 -0.28 l-0.04 0 c-0.08 0 -0.08 -0.14 -0.08 -0.18 c0 -0.16 0.18 -0.1 0.18 -0.28 c0 0 -0.18 -0.04 -0.18 -0.1 l0.06 -0.18 c-0.04 -0.06 -0.06 -0.08 -0.06 -0.16 c0 -0.06 0.06 -0.12 0.06 -0.28 l-0.16 0 c0 -0.06 -0.06 -0.06 -0.06 -0.12 c0 0 0.16 -0.46 0.16 -0.56 c0 -0.02 -0.02 -0.08 -0.02 -0.12 c0 -0.06 0.02 -0.1 0.08 -0.1 c-0.18 0 0.06 -1 -0.38 -1 c-0.1 -0.02 -0.08 0.06 -0.16 0.06 c-0.1 0 -0.2 -0.06 -0.28 -0.06 c-0.06 0 -0.12 0.06 -0.16 0.06 c-0.02 0.02 -0.14 -0.04 -0.24 -0.06 l-0.16 0.06 c-0.12 0 -0.5 0 -0.62 -0.02 l-0.1 0.1 c-0.06 -0.06 -0.18 -0.1 -0.24 -0.1 l-0.1 0.04 l-0.12 -0.04 c-0.1 0.02 -0.14 0.04 -0.28 0.04 c-0.1 0 -0.5 -0.16 -0.5 -0.28 c0 -0.28 0.16 -0.66 0.44 -0.66 c0.26 0 0.44 0.06 0.68 0.06 c0.06 0 0.34 -0.04 0.4 -0.04 c0 0.06 0.04 0.1 0.1 0.16 c0.06 -0.12 0.46 -0.12 0.5 -0.12 c0.02 0 0.06 0.02 0.06 0.06 l0.12 -0.1 l0.22 0.22 c0.02 0.1 0.1 -0.12 0.16 -0.12 s0.06 0.06 0.12 0.06 c0.08 0 0.1 -0.02 0.16 -0.06 l0.12 0.12 l0.06 -0.06 l-0.06 -0.1 c0.02 -0.08 0.14 -0.06 0.22 -0.06 l0 -0.46 c0.42 -0.16 0.3 -0.84 0.36 -1.16 c0 -0.24 0.12 -0.22 0.12 -0.38 c0.04 -0.28 0.58 -1.62 0.86 -1.62 l0 0.06 c0.1 0 0.16 -0.06 0.22 -0.12 l-0.06 -0.06 c0.46 0 0.34 -0.66 0.62 -0.78 c0.42 -0.02 0.78 -0.38 1.18 -0.38 l0.06 0.06 c0.04 -0.06 0.34 -0.34 0.4 -0.4 c0 0.12 0.06 0.12 0.12 0.12 c0.16 0 0.16 -0.16 0.34 -0.16 l0.04 0.04 c0.18 0 0.34 -0.1 0.4 -0.1 c0.12 0 0.16 0.06 0.28 0.06 c0.06 0 0.34 -0.04 0.4 -0.1 l0.6 0 c0.06 -0.06 0.52 -0.12 0.56 -0.12 c0 0.06 0.14 0.24 0.4 0.24 c0.08 0.02 0.1 -0.12 0.16 -0.12 s0.18 0.28 0.34 0.3 c0.06 0 0.12 0 0.18 -0.06 l0.54 0.18 c0.1 0.22 0.56 0.22 0.78 0.34 c0.1 0.04 0.28 0.28 0.38 0.32 c0.52 0.36 0.46 0.14 0.62 0.86 c0.06 0.12 0.18 0.24 0.18 0.4 c-0.02 0.5 -0.26 1.24 -0.7 1.38 c-0.12 0.06 -0.56 0.06 -0.68 0.16 c-0.5 -0.1 -0.66 -0.16 -1 -0.6 c-0.14 -0.62 -0.48 -0.1 -0.48 -0.74 c0 -0.4 0.26 -0.34 0.26 -0.6 c0 -0.06 -0.04 -0.06 -0.04 -0.1 c0 -0.02 0.22 -0.24 0.34 -0.36 c0.02 -0.04 0 -0.34 -0.22 -0.34 c-0.04 -0.04 -0.12 0.06 -0.18 0.12 c-0.5 -0.32 -1 -0.36 -1.56 -0.36 c-0.06 -0.02 -0.12 0 -0.28 0.06 c-0.06 0 -0.14 -0.02 -0.22 -0.06 l-0.06 0 c0.02 0.02 -0.8 0.2 -1.18 0.2 c-0.3 0.3 -0.72 0.16 -0.96 0.5 c-0.46 -0.12 -0.74 0.96 -0.74 1.34 c0 0.04 0.12 0.28 0.12 0.32 c0 0.28 -0.24 0.52 -0.24 0.8 c0 0.16 0.18 0.1 0.18 0.32 c0 0.18 -0.06 0.12 -0.12 0.28 c-0.08 0.28 -0.08 0.34 -0.08 0.62 c0 0.5 0.2 0.4 0.42 0.4 c0.12 0 0.16 -0.04 0.32 -0.04 c0.1 0 0.22 0.06 0.34 0.06 l0.04 -0.12 l0.18 0.06 c0.32 0.04 0.42 -0.16 0.66 -0.16 l0 0.1 c0.06 0 0.12 -0.06 0.18 -0.06 c0.04 -0.02 0.1 0.02 0.16 0.06 c0.12 0 0.28 -0.1 0.34 -0.22 l0.78 0.02 c0.18 0 0.18 0.44 0.18 0.5 c0 0.48 -0.52 0.46 -0.52 0.56 c0 0.04 0.02 0.06 0.12 0.06 l-0.5 -0.02 l0.06 -0.06 c-0.12 -0.1 -0.12 -0.1 -0.24 -0.1 c-0.16 0 -0.22 0.04 -0.38 0.04 l-0.06 -0.04 l-0.78 0 c-0.06 -0.06 -0.14 -0.08 -0.22 -0.08 c-0.1 0 -0.18 0.02 -0.24 0.02 c-0.1 0 -0.1 -0.12 -0.22 -0.12 c-0.16 0 -0.16 0.1 -0.38 0.1 c-0.04 -0.08 -0.06 -0.06 -0.24 -0.06 c0 0.06 0.02 0.14 0.06 0.22 c0.1 0.02 -0.1 0.04 -0.1 0.22 c0 0.24 0.1 0.4 0.14 0.62 l-0.06 0.12 c-0.02 0.18 0.06 0.32 0.06 0.5 l-0.12 0.16 c0.06 0.06 0.18 0.06 0.18 0.12 c0 0.4 -0.06 0.9 -0.18 1.24 l0.12 0.04 c-0.04 0.36 0.02 0.34 -0.14 0.46 c0.08 0.1 0.14 0.18 0.18 0.28 c0.04 0.12 -0.12 0.2 -0.12 0.34 c0 0.34 0.18 0.62 0.18 0.94 c-0.16 -0.04 -0.14 0.28 -0.14 0.46 c0 0.46 0.02 0.78 0.06 0.9 l0.16 0.1 c-0.1 0.12 -0.16 0.4 -0.16 0.56 c0 0.52 0.54 0.98 0.98 0.98 c0.2 0 0.26 -0.02 0.4 -0.12 c0 0 0.22 0.18 0.38 0.18 c0.18 0 0.4 -0.12 0.62 -0.12 c0.22 0.02 0.68 0.18 0.68 0.46 c0 0.66 -0.32 0.54 -0.78 0.54 c-0.12 0 -0.46 0 -0.56 -0.1 c-0.5 0 -0.78 0.06 -1.18 0.06 c-0.22 0 -0.6 -0.12 -0.84 -0.08 l-0.18 0.1 l0 -0.1 c-0.1 0 -0.2 0.02 -0.28 0.02 c-0.18 0 -0.36 -0.2 -0.42 -0.2 c-0.24 0 -0.68 0.32 -0.9 0.32 c-0.16 0 -0.36 -0.22 -0.52 -0.22 c-0.24 0 -0.4 0.08 -0.52 0.08 l-0.22 0 c-0.1 0 -0.18 0 -0.32 0.08 c-0.06 0 -0.12 -0.02 -0.18 -0.04 c-0.16 0 -0.34 0.1 -0.44 0.14 z M37.16 18.36 c-0.02 0 -0.04 0.02 -0.04 0.06 c0 0.02 0.02 0.06 0.04 0.06 c0.04 0 0.04 -0.04 0.04 -0.06 c0 -0.04 0 -0.06 -0.04 -0.06 z M35.7 17.240000000000002 l0 0.06 l0.06 -0.06 l-0.06 0 z M36.18 15.96 c-0.02 0 -0.04 0.02 -0.04 0.04 c0 0.04 0.02 0.06 0.04 0.06 s0.04 -0.02 0.04 -0.06 c0 -0.02 -0.02 -0.04 -0.04 -0.04 z M36.84 15.559999999999999 c-0.02 0 -0.02 0.02 -0.02 0.06 c0 0.02 0 0.06 0.02 0.06 c0.04 0 0.04 -0.04 0.04 -0.06 c0 -0.04 0 -0.06 -0.04 -0.06 z M36.4 15.280000000000001 c0 0.06 0 0.12 0.1 0.16 c0 -0.08 0.02 -0.14 -0.1 -0.22 l0 0.06 z M36.74 14.780000000000001 c-0.02 0 -0.04 0.02 -0.04 0.04 c0 0.04 0.02 0.06 0.04 0.06 c0.04 0 0.04 -0.02 0.04 -0.06 c0 -0.02 0 -0.04 -0.04 -0.04 z M36.8 14.54 l0 0.12 l0.04 -0.06 z M35.9 14.5 c-0.02 0 -0.04 0.02 -0.04 0.04 c0 0.04 0.02 0.06 0.04 0.06 s0.04 -0.02 0.04 -0.06 c0 -0.02 -0.02 -0.04 -0.04 -0.04 z M35.68 14.04 c-0.02 0 -0.02 0.02 -0.02 0.06 c0 0.02 0 0.06 0.02 0.06 c0.04 0 0.04 -0.04 0.04 -0.06 c0 -0.04 0 -0.06 -0.04 -0.06 z M40.08 11.22 c-0.02 0 -0.04 0.02 -0.04 0.06 c0 0.02 0.02 0.06 0.04 0.06 c0.04 0 0.04 -0.04 0.04 -0.06 c0 -0.04 0 -0.06 -0.04 -0.06 z M40.64 10.44 c-0.02 0 -0.04 0.02 -0.04 0.06 c0 0.02 0.02 0.06 0.04 0.06 c0.04 0 0.04 -0.04 0.04 -0.06 c0 -0.04 0 -0.06 -0.04 -0.06 z M39.92 10.34 l-0.02 0 s-0.02 0.02 -0.02 0.04 s0.02 0.04 0.04 0.06 c0.02 0 0.04 -0.02 0.04 -0.06 c0 -0.02 -0.02 -0.04 -0.04 -0.04 z M40.58 10.34 c-0.02 0 -0.04 0.02 -0.04 0.04 c0 0.04 0.02 0.06 0.04 0.06 c0.04 0 0.04 -0.02 0.04 -0.06 c0 -0.02 0 -0.04 -0.04 -0.04 z M39.8 10.26 c-0.02 0 -0.04 0.02 -0.04 0.04 c0 0.04 0.02 0.06 0.04 0.06 c0.04 0 0.04 -0.02 0.04 -0.06 c0 -0.02 0 -0.04 -0.04 -0.04 z M39.64 10.14 l0 0.06 l-0.06 0 z M36.62 8.94 c0 0.06 0 0.12 0.06 0.12 c0 -0.1 0.02 -0.16 -0.06 -0.16 l0 0.04 z M35.5 8 c-0.02 0 -0.04 0.02 -0.04 0.04 c0 0.04 0.02 0.06 0.04 0.06 c0.04 0 0.04 -0.02 0.04 -0.06 c0 -0.02 0 -0.04 -0.04 -0.04 z M35.62 7.779999999999999 l0 0.04 l0.06 -0.04 l-0.06 0 z M43.14 5.42 c-0.02 0 -0.04 0.02 -0.04 0.02 c0 0.02 0.02 0.04 0.04 0.04 c0.04 0 0.04 -0.02 0.04 -0.04 c0 0 0 -0.02 -0.04 -0.02 z M49.56 20.24 c-0.18 0 -0.4 0.1 -0.56 0.1 c-0.18 0 -0.78 -0.1 -0.9 -0.28 c-0.06 0 -0.28 0.06 -0.34 0.06 c-0.16 0.02 -0.4 -0.18 -0.62 -0.3 c-0.28 -0.18 -0.94 -0.1 -1.06 -0.56 l-0.12 0.06 c-0.16 0.12 -1.4 -1.14 -1.48 -1.14 c-0.34 -0.34 -0.9 -1.06 -0.96 -1.56 l-0.06 0.1 c0 -0.56 -0.3 -0.86 -0.3 -1.2 c0 -0.1 0.1 -0.14 0.1 -0.2 c0 -0.22 -0.22 -0.42 -0.22 -0.7 c0 -0.12 -0.02 -0.46 0.18 -0.48 c0 -0.4 0.34 -0.2 0.34 -0.66 c-0.04 -0.12 -0.06 -0.16 -0.06 -0.34 c0 -0.14 0.48 -0.48 0.56 -0.68 c0.08 0 0.12 0.02 0.18 0.06 c0.34 0.08 0.5 -0.62 0.52 -0.62 l0.04 0.18 l0.06 -0.06 l0.02 -0.22 l0.28 0 c0 -0.04 0.04 -0.2 -0.06 -0.28 c0.06 0 0.34 -0.12 0.38 -0.12 l0.06 -0.04 l-0.1 -0.08 c0 -0.12 0.06 -0.14 0.12 -0.14 c0.04 0 0.08 0.02 0.12 0.02 c-0.02 0 0.4 -0.16 0.54 -0.3 c0.02 0 0.04 0.02 0.06 0.02 c0.06 0 0.12 -0.1 0.16 -0.14 l0.06 0.06 c0.08 -0.14 0.2 -0.12 0.22 -0.34 c0 0 0.12 0.06 0.16 0.06 c0 -0.12 0.02 -0.32 -0.04 -0.34 c0 0 0.32 -0.16 0.38 -0.16 s0.06 0.12 0.18 0.12 c0.16 0 0.22 -0.18 0.32 -0.18 c0.24 -0.04 0.8 0.02 0.9 -0.08 l0.24 0.16 c0.04 -0.04 0.06 -0.1 0.1 -0.16 c0.08 0 0.12 0.04 0.18 0.1 c0.06 0 0.32 -0.1 0.32 -0.1 l0.12 0.1 c0.06 0 0.3 -0.16 0.4 -0.16 c0.04 0 0.28 0.18 0.44 0.18 l0.12 -0.06 c0.04 0.04 0.06 0.06 0.04 0.12 c0.12 0 0.18 -0.12 0.28 -0.12 c0.24 0 0.46 0.18 0.62 0.24 c0.26 0.12 0.58 0.02 0.84 0.22 c0.64 0.48 1.08 0.76 1.34 0.86 l0.74 0.72 c0.08 0.12 0.2 0.9 0.26 0.92 l0.06 -0.06 c0.5 0.42 0.82 1.26 0.94 1.3 c-0.04 0.06 -0.1 0.18 -0.18 0.28 c0 0.04 0.06 0.22 0.1 0.22 c0 0.28 -0.28 0.5 -0.5 0.62 c-0.06 -0.06 -0.16 -0.06 -0.28 -0.06 c-0.1 0 -0.1 0.06 -0.16 0.06 c-0.36 -0.04 -0.92 0 -1.06 -0.2 c-0.06 0 -0.18 0.06 -0.18 0.06 l0 -0.06 c-0.16 0 -0.28 0.06 -0.44 0.06 c-0.2 0 -0.2 0 -0.28 -0.06 l-0.12 0.12 l-0.94 -0.02 l-0.18 0.1 c-0.06 -0.02 -0.08 -0.1 -0.1 -0.16 c-0.24 0 -0.46 0.06 -0.68 0.06 c-0.12 0 -0.22 -0.06 -0.4 -0.06 l-0.1 0.06 l-0.12 -0.06 l-0.06 0.04 l-1.34 0 c-0.16 -0.06 -0.28 -0.06 -0.44 -0.06 c-0.1 0 -0.26 -0.04 -0.28 0.06 c-0.02 0 -0.18 -0.04 -0.28 -0.08 c-0.18 -0.04 -0.16 0.12 -0.24 0.12 c-0.06 0 -0.06 -0.02 -0.1 -0.06 c-0.04 0.04 -0.02 0.06 -0.12 0.06 c0 0 -0.16 -0.24 -0.22 -0.24 c-0.18 -0.06 -0.32 0.24 -0.56 0.24 c-0.22 0 -0.28 -0.28 -0.5 -0.28 c0.04 -0.02 -0.06 0.14 -0.12 0.22 c0 0.52 0.12 0.72 0.12 0.96 c0 0.1 -0.06 0.14 -0.06 0.22 l0.12 0.1 c0 0.06 -0.02 0.12 -0.06 0.18 c0.1 0 0.32 0.28 0.32 0.34 c0 0.5 0.26 0.94 0.56 1.22 c-0.04 0.02 0.06 0.24 0.16 0.34 l0.02 -0.02 c0.08 0 0.26 0.24 0.32 0.24 c0.4 -0.12 0.66 0.44 0.98 0.58 l0.06 -0.1 c0.22 0 0.34 0.16 0.5 0.16 c0.4 0 0.8 -0.12 1.18 -0.12 l0.06 0.08 c0.12 0 0.2 -0.06 0.28 -0.06 l0.22 0.12 c0.18 0.02 0.16 -0.12 0.34 -0.12 c0.1 -0.02 0.16 0 0.22 0.06 c0.22 -0.08 0.68 -0.34 0.92 -0.44 c0.22 -0.1 0.5 -0.04 0.72 -0.16 c0.12 -0.04 0.24 -0.22 0.34 -0.28 c0.12 -0.04 1.18 -0.72 1.18 -0.78 c-0.04 -0.2 0.06 -0.38 0.12 -0.44 c0.4 0.02 0.06 -0.8 0.34 -1 c0.3 0.1 0.18 -0.22 0.56 -0.22 c0.18 0 0.18 0.34 0.18 0.46 c-0.02 0.5 -0.24 0.84 -0.42 1.22 l-0.06 0 c0.02 0.08 -0.28 0.44 -0.28 0.62 l-0.16 -0.02 c-0.22 0.08 -0.14 0.46 -0.5 0.5 c-0.02 0.34 -0.62 0.52 -0.98 0.78 c-0.34 0.24 -1 0.54 -1.46 0.6 c-0.44 0.06 -0.78 0.28 -1.22 0.28 c-0.12 0 -0.18 -0.1 -0.22 -0.1 c-0.12 0 -0.24 0.08 -0.34 0.14 l0.06 0 c0 -0.16 -0.24 -0.22 -0.34 -0.22 z M51.06 19.36 c-0.02 0 -0.02 0.02 -0.02 0.06 c0 0.02 0 0.06 0.02 0.06 c0.04 0 0.04 -0.04 0.04 -0.06 c0 -0.04 0 -0.06 -0.04 -0.06 z M52.14 18.96 c-0.02 0 -0.04 0.02 -0.04 0.06 c0 0.02 0.02 0.06 0.04 0.06 s0.04 -0.04 0.04 -0.06 c0 -0.04 -0.02 -0.06 -0.04 -0.06 z M52.58 18.94 l0 -0.02 c0 -0.02 0 -0.02 -0.02 -0.02 c0 0 -0.02 0 -0.04 0.04 c0 0.02 0.02 0.02 0.04 0.02 c0 0 0.02 0 0.02 -0.02 z M54.400000000000006 17.92 c-0.02 0 -0.04 0.02 -0.04 0.06 c0 0.02 0.02 0.06 0.04 0.06 s0.04 -0.04 0.04 -0.06 c0 -0.04 -0.02 -0.06 -0.04 -0.06 z M46.160000000000004 17.8 l0 0.06 l0.06 0 l0 -0.06 l-0.06 0 z M43.32 15.66 c-0.02 0 -0.04 0.02 -0.04 0.06 c0 0.02 0.02 0.06 0.04 0.06 c0.04 0 0.04 -0.04 0.04 -0.06 c0 -0.04 0 -0.06 -0.04 -0.06 z M43.160000000000004 14.8 c0 0.1 0.02 0.08 0.04 0.12 c0 0.02 0 -0.06 -0.04 -0.12 z M43.160000000000004 14.52 c-0.02 0 -0.04 0.02 -0.04 0.04 c0 0.04 0.02 0.06 0.06 0.06 c0 0 0.02 -0.02 0.02 -0.04 s-0.02 -0.06 -0.04 -0.06 z M47.36 14.34 c0.04 0.04 0.1 0.1 0.1 0.16 c0.06 -0.06 0.28 -0.2 0.4 -0.2 c0.28 0 0.72 0.24 0.9 0.16 l0.1 -0.1 c0.12 0.16 0.56 0.16 0.74 0.16 c0.16 0 0.22 -0.14 0.4 -0.14 c0.2 0 0.38 0.1 0.54 0.1 c0.12 0 0.18 -0.1 0.28 -0.1 c0.12 0 0.12 0.1 0.18 0.1 c0.22 0 0.38 -0.06 0.56 -0.16 c0.04 0 0.18 0.02 0.28 0.06 c0.16 0.02 0.14 -0.06 0.28 -0.06 c0.16 0 0.28 0.08 0.44 0.08 c0.06 0 0.28 0 0.3 -0.12 l0 -0.4 l0.12 0 l0 -0.28 s-0.06 -0.04 -0.12 -0.04 l-0.1 0.04 l-0.06 -0.04 c0 -0.42 0.1 -0.14 0.1 -0.34 c-0.04 -0.06 -0.16 -0.18 -0.22 -0.22 l0.06 -0.12 c0 -0.88 -1.22 -1.92 -1.54 -1.92 l-0.12 0.1 c-0.06 -0.04 -0.12 -0.1 -0.12 -0.16 l-0.1 0.06 c0 -0.22 -0.12 -0.18 -0.22 -0.28 c-0.2 0.08 -0.4 0.14 -0.64 0.14 c-0.2 0 -0.34 -0.06 -0.6 -0.06 c-0.2 0 -0.18 0 -0.28 0.06 l-0.06 -0.06 c-0.34 0 -0.68 0.24 -1 0.34 l-0.28 -0.02 c-0.18 0.08 -0.36 0.44 -0.68 0.34 c-0.18 0.58 -0.92 0.72 -0.92 1.56 c-0.06 0 -0.1 0 -0.1 0.06 c0 0.1 0.02 0.08 0.04 0.12 c0 0.34 -0.16 0.66 -0.16 1 c0 0.18 0.24 0.22 0.42 0.22 c0.08 0.06 0.32 -0.1 0.48 -0.1 c0.1 0 0.42 0.06 0.48 0.16 z M48.86 14.46 c-0.02 0 -0.02 0.02 -0.02 0.06 c0 0.02 0 0.06 0.02 0.06 c0.04 0 0.04 -0.04 0.04 -0.06 c0 -0.04 0 -0.06 -0.04 -0.06 z M43.760000000000005 14.32 c-0.02 0 -0.02 0.02 -0.02 0.04 c0 0.04 0 0.06 0.02 0.06 c0.04 0 0.04 -0.02 0.04 -0.06 c0 -0.02 0 -0.04 -0.04 -0.04 z M52.96 14.4 c-0.02 0 -0.04 0.02 -0.04 0.04 c0 0.04 0.02 0.06 0.04 0.06 c0.04 0 0.04 -0.02 0.04 -0.06 c0 -0.02 0 -0.04 -0.04 -0.04 z M52.980000000000004 14.280000000000001 c-0.04 0 -0.06 0.02 -0.06 0.04 c0 0 0.02 0.02 0.04 0.02 c0.04 0 0.06 -0.02 0.06 -0.04 c0 0 -0.02 -0.02 -0.04 -0.02 z M55.22 14.08 c-0.02 0 -0.04 0.02 -0.04 0.04 c0 0.04 0.02 0.06 0.04 0.06 c0.04 0 0.04 -0.02 0.04 -0.06 c0 -0.02 0 -0.04 -0.04 -0.04 z M52.800000000000004 13.66 c0.04 0 0.04 0.02 0.04 0.06 c0 0.02 0 0.06 -0.04 0.06 c-0.02 0 -0.02 -0.04 -0.02 -0.06 c0 -0.04 0 -0.06 0.02 -0.06 z M43.84 13.24 c-0.02 0 -0.04 0.02 -0.04 0.06 c0 0.02 0.02 0.06 0.04 0.06 c0.04 0 0.04 -0.04 0.04 -0.06 c0 -0.04 0 -0.06 -0.04 -0.06 z M55 13.18 c-0.02 0 -0.04 0.02 -0.04 0.02 c0 0.02 0.02 0.04 0.04 0.04 s0.04 -0.02 0.04 -0.04 c0 0 -0.02 -0.02 -0.04 -0.02 z M52.42 13 c0 0.02 -0.02 0.02 -0.02 0.02 c-0.02 0 -0.04 0 -0.04 -0.02 c0 -0.04 0.02 -0.04 0.04 -0.04 c0 0 0.02 0 0.02 0.04 z M54.38 12.26 c-0.02 0 -0.04 0.02 -0.04 0.06 c0 0.02 0.02 0.06 0.04 0.06 c0.04 0 0.04 -0.04 0.04 -0.06 c0 -0.04 0 -0.06 -0.04 -0.06 z M50.54 10.78 c0.02 0 0.04 0.02 0.04 0.06 c0 0.02 -0.02 0.06 -0.04 0.06 s-0.04 -0.04 -0.04 -0.06 c0 -0.04 0.02 -0.06 0.04 -0.06 z M47.160000000000004 10.3 c-0.1 0 -0.1 0.06 -0.1 0.12 c0.06 0 0.1 -0.06 0.1 -0.12 z M68.96000000000001 20.1 l-0.12 0.06 c-0.16 0 -0.68 -0.06 -0.72 -0.1 l-0.68 0 l-0.12 0.04 l-0.94 -0.02 c-0.12 0.06 -0.18 0.06 -0.34 0.06 c-0.18 0 -0.42 -0.12 -0.64 -0.12 c-0.12 0 -0.4 0.12 -0.42 0.12 c-0.22 0 -0.4 -0.24 -0.4 -0.44 c0 -0.44 0.52 -0.46 0.64 -0.46 c0.28 0 0.42 0.12 0.66 0.12 c0.5 0 1.52 -0.22 1.52 -1.16 l0.02 -1.96 c0.06 -0.16 0.06 -0.28 0.06 -0.44 c0 -0.28 -0.1 -0.5 -0.16 -0.68 c0.02 -0.44 0.18 -0.96 0.18 -1.46 c-0.12 -0.1 -0.16 -0.28 -0.16 -0.44 l0.04 -0.12 c0 -0.34 -0.08 -1.12 -0.36 -1.34 c-0.08 -0.08 -0.7 -0.26 -0.78 -0.36 l-0.84 0 c-0.08 -0.04 -0.2 -0.06 -0.24 -0.06 c0.02 0.08 -0.26 0.08 -0.28 0.12 l-0.56 -0.18 c-0.16 -0.06 -0.16 -0.34 -0.16 -0.46 c0 -0.44 0.68 -0.6 1 -0.6 c0.18 0 0.96 0.28 1.18 0.28 c0.06 0 0.22 -0.1 0.28 -0.16 c0.34 -0.04 0.5 -0.04 0.78 -0.04 c0.18 0 0.28 0.06 0.46 0.06 c0.42 0 0.84 -0.16 1.22 -0.16 c0.28 0 0.46 0.1 0.58 0.34 c0 0.04 -0.02 0.06 -0.02 0.1 c0 0.16 0.12 0.2 0.12 0.36 c0 0.28 -0.1 0.44 -0.16 0.66 c-0.02 0.22 0.1 0.32 0.1 0.52 c0 0.16 -0.04 0.22 -0.06 0.38 c0 0.4 0.1 1.36 0.1 1.62 c0 0.12 -0.16 0.18 -0.16 0.28 c0 0.24 0.14 0.46 0.14 0.68 c0 0.34 -0.1 0.74 -0.1 1.02 c0 -0.06 -0.02 0.2 0.1 0.32 c0 0.02 -0.08 0.28 -0.16 0.28 c0 0.26 0.02 0.92 0.14 1.02 l0 0.18 c0 0.38 0.16 0.8 0.4 1.16 c0.38 0.06 0.76 0.28 1.16 0.28 c0.32 0 0.74 -0.14 1.14 -0.14 c0.08 0.22 0.08 0.32 0.08 0.56 c0 0.36 -0.06 0.38 -0.22 0.38 c-0.6 0 -1.32 -0.18 -1.68 -0.18 c-0.22 0 -0.34 0.1 -0.5 0.1 c-0.18 0 -0.34 -0.04 -0.5 -0.04 c-0.08 0 -0.24 0.22 -0.34 0.16 c-0.06 0 -0.24 -0.14 -0.28 -0.14 z M66.84 6.42 c0 -0.72 0.9 -1.38 1.58 -1.38 c0.26 0 0.56 0.08 0.82 0.08 l0.08 0 c0.34 0.28 0.88 0.94 0.88 1.4 c-0.2 0.6 -0.56 1 -1.3 1.26 c-0.78 0.02 -2.06 -0.38 -2.06 -1.36 z M79.76 20.04 c-0.2 0 -0.5 0.02 -0.6 -0.06 l-0.12 0.06 c-0.7 0.04 -1.38 -0.56 -1.9 -0.58 c-0.08 -0.12 -1.04 -1.02 -1.5 -0.98 c-0.06 0.06 -0.34 0.16 -0.4 0.22 c-0.22 0.22 -0.62 1.12 -1 1.12 c-0.34 0 -0.56 -0.62 -0.56 -0.84 c0.02 -0.32 0.22 -0.62 0.22 -1 c0 -0.22 -0.16 -0.12 -0.16 -0.28 c0.02 -0.18 0.12 -0.28 0.12 -0.4 c0 -0.2 -0.06 -0.46 -0.1 -0.56 l0.1 -0.16 c0.02 -0.26 -0.02 -0.24 -0.1 -0.34 c0.1 0.1 0.04 -0.72 0.28 -0.72 c0.28 0 0.6 0.22 0.6 0.5 l-0.04 0.1 c0.04 0.18 0.32 0.46 0.44 0.56 c-0.08 -0.16 0.32 0.64 0.66 1.02 c0.04 0.06 0.5 0.24 0.6 0.3 c0 0.5 0.54 0.24 0.62 0.66 l0.12 -0.04 c0.18 -0.06 0.78 0.32 0.9 0.38 c0.1 -0.04 0.26 -0.06 0.28 -0.06 l0.1 0.08 c0.06 0 0.34 -0.1 0.4 -0.1 c0.28 -0.02 0.7 0.16 1 0.16 l0.24 -0.06 c0.14 -0.02 0.38 -0.02 0.56 0.08 l0.1 -0.12 c0.06 -0.1 0.22 0.12 0.28 0.12 c0.5 -0.04 1 -0.24 1.44 -0.24 c0.06 0 0.14 0.02 0.2 0.02 c-0.04 0 1.5 -0.42 1.5 -1.16 c0 -0.08 -0.22 -0.7 -0.42 -0.84 c-0.68 -0.38 -1.44 -0.34 -2.14 -0.7 c-0.4 0 -0.38 -0.04 -0.5 0.06 c-0.46 -0.38 -1.54 -0.28 -2.12 -0.4 c-0.28 -0.06 -0.52 -0.2 -0.68 -0.2 l-0.18 0.12 c-0.1 -0.2 -0.56 -0.1 -0.56 -0.28 l-0.04 0.06 l-0.06 0 c-1 -0.24 -1.94 -0.42 -2.84 -1.04 c-0.24 -0.16 -0.68 -0.78 -0.68 -1.06 c0 -0.18 0.06 -0.28 0.08 -0.46 c-0.04 0 -0.06 -0.02 -0.1 -0.02 c-0.02 0 -0.06 0.02 -0.12 0.08 l0 -0.1 c0.16 0 0.22 -0.12 0.22 -0.24 l-0.16 0 c0 -0.22 0.1 -0.16 0.22 -0.32 c0.12 -0.44 0.26 -0.5 0.44 -0.68 c0.06 -0.06 0.24 -0.4 0.28 -0.44 c0.28 -0.14 0.3 -0.34 0.58 -0.52 s0.56 -0.08 0.56 -0.38 l0.18 0.02 c0.18 -0.14 1.14 -0.74 1.46 -0.74 c0.54 0.1 0.98 0.2 1.5 0.2 c0.32 0 0.46 -0.12 0.56 -0.12 c0.18 0 0.4 0.28 0.46 0.34 c0.1 -0.12 0.28 -0.06 0.38 -0.12 l0 0.18 c0.06 0 0.14 -0.04 0.22 -0.04 c-0.02 0 0.14 0.06 0.18 0.12 c0.06 -0.04 0.14 -0.06 0.16 -0.06 c0.12 0 0.56 0.44 0.68 0.5 c0.16 0.12 0.28 0 0.28 0.16 l0.12 0 l-0.02 0.12 l0.1 0 c0.04 0.02 0.52 0.26 0.56 0.4 c0.06 0 0.92 -0.72 0.98 -0.78 l0.1 0.12 c0.12 -0.16 0.18 -0.62 0.46 -0.62 c0.22 0 0.28 0.28 0.5 0.28 c0 0.34 -0.08 0.56 -0.08 0.84 c0 0.36 0 0.36 0.06 0.5 c0 0.18 -0.16 0.24 -0.16 0.56 c0 0.28 0.16 0.56 0.16 0.8 c-0.02 0.38 -0.24 0.88 -0.7 0.88 c-0.28 -0.44 -0.7 -0.88 -1.04 -1.34 c-0.1 -0.38 -0.46 -0.44 -0.66 -0.58 c-0.32 -0.52 -0.88 -0.46 -1.24 -0.9 l-0.16 0.06 c-0.18 -0.14 -0.52 -0.08 -0.68 -0.3 c-0.1 0.06 -0.08 0.06 -0.28 0.06 c-0.12 0 -0.7 -0.16 -0.7 -0.16 c-0.46 0 -0.46 0.04 -0.68 0.04 l-0.06 -0.04 c-0.08 0 -0.1 0.02 -0.16 0.04 l-0.06 -0.06 c-0.06 0 -0.12 0.02 -0.18 0.04 c0 0 -0.16 -0.08 -0.22 -0.16 c-0.28 0 -0.44 0.16 -0.68 0.34 c-0.02 0 -0.18 -0.02 -0.28 -0.06 c-0.6 0 -0.84 0.3 -1.02 0.42 c-0.34 0.34 -0.84 0.34 -0.84 0.9 c0 0.6 0.84 0.8 1.28 0.92 c0.3 0.08 0.62 0.28 1.06 0.28 c0.08 0.02 0.14 -0.02 0.22 -0.06 c0.16 0.34 0.64 0.12 0.84 0.42 l0.12 -0.12 c0.58 -0.08 2.04 0.7 3.52 0.7 c0.12 0 0.22 -0.06 0.34 -0.06 l0 0.12 c0.34 0 2.18 0.86 2.38 1.24 c0.02 0.04 0.16 0.54 0.12 0.56 l0.06 0 c0 0.34 0.16 0.54 0.16 0.86 c0 0.24 -0.06 0.6 -0.12 0.82 c-0.24 0.14 -0.38 0.72 -0.5 0.72 l-0.06 0 c0.14 0 -0.76 0.36 -0.84 0.8 c-0.06 -0.02 -0.12 -0.04 -0.18 -0.04 c-0.3 0 -0.48 0.24 -0.72 0.36 c-0.32 0.16 -0.68 0.1 -1.02 0.22 c-0.12 0.06 -0.34 0.16 -0.46 0.16 l-0.06 -0.04 c-0.1 -0.02 -0.24 0 -0.34 0.04 c0 -0.04 -0.1 -0.06 -0.16 -0.1 c-0.28 0 -0.56 0.14 -0.78 0.14 c-0.06 0 -0.12 0 -0.12 -0.1 z M73.88000000000001 13.379999999999999 c-0.02 0 -0.04 0.02 -0.04 0.02 c0 0.02 0.02 0.04 0.04 0.04 c0.04 0 0.04 -0.02 0.04 -0.04 c0 0 0 -0.02 -0.04 -0.02 z M82.98 11.22 c-0.02 0 -0.04 0.02 -0.04 0.02 c0 0.02 0.02 0.04 0.04 0.04 c0.04 0 0.04 -0.02 0.04 -0.04 c0 0 0 -0.02 -0.04 -0.02 z M104.82000000000001 20.66 c-0.1 0 -0.16 0 -0.28 0.04 l0 -0.16 l-0.32 0 c-0.26 -0.48 -0.36 0.1 -1.02 -1.02 l-0.1 0 l0 -0.24 c-0.12 0.12 -0.18 0.06 -0.34 0.12 c-0.5 0.7 -1.18 0.66 -1.68 1.1 c-0.12 0 -0.36 -0.06 -0.4 -0.06 c-0.06 0 -0.16 0.06 -0.22 0.06 c-0.1 0 -0.3 -0.02 -0.4 -0.06 c-0.08 0.2 -0.3 0.22 -0.84 0.22 c-0.3 0 -0.6 -0.12 -0.9 -0.12 c-0.1 0 -0.16 0.06 -0.28 0.06 c-0.38 0 -0.72 -0.28 -1.06 -0.4 c-0.54 -0.06 -0.8 -0.28 -1.06 -0.52 c-0.08 0 -0.1 0.02 -0.16 0.06 c-0.06 -0.2 -0.42 -0.58 -0.5 -0.58 l-0.08 0 c0.04 0 -0.3 -0.16 -0.3 -0.38 c0.02 0.04 -0.28 -0.42 -0.28 -0.58 c0 -0.06 0.1 -0.14 0.16 -0.14 c-0.16 -0.14 -0.22 -0.26 -0.22 -0.36 s0 -0.16 0.08 -0.16 c0.06 0 0.06 0.06 0.08 0.12 c0.06 -0.06 0.12 -0.12 0.12 -0.22 c0 -0.06 -0.12 -0.18 -0.12 -0.18 l-0.04 0 l0 0.18 c-0.06 -0.02 -0.12 -0.14 -0.12 -0.2 c0 -0.16 0.22 -0.26 0.22 -0.42 l-0.06 -0.12 c0.06 -0.1 0.4 -0.32 0.64 -0.56 c0.12 -0.04 1.18 -0.38 1.18 -0.44 l-0.06 -0.12 l0.1 0 c0.22 0 0.2 -0.14 0.34 -0.14 c0.08 0 0.2 0.1 0.3 0.1 c0.1 -0.04 0.44 -0.28 0.66 -0.28 l0.12 0.06 c0.14 -0.1 0.4 -0.16 0.5 -0.16 l0.06 0.06 l0.16 -0.06 c0.1 0.06 0.26 0.1 0.28 0.1 c0.1 0 0.12 -0.3 0.84 -0.3 l0.12 0.1 c0.16 0 0.62 -0.28 0.62 -0.38 c0.2 0 0.36 -0.02 0.44 0.04 l0.74 -0.2 c0.1 -0.06 0.02 -0.22 0.18 -0.28 l0.1 0.12 c-0.02 0.06 0.2 -0.08 0.3 -0.18 l-0.02 0.18 c0.14 -0.18 0.68 -0.28 0.68 -0.62 c-0.08 -0.06 -0.06 -0.58 -0.06 -0.72 c-0.04 0 -0.3 -1.02 -0.3 -1.12 c-0.34 0 -0.12 -0.28 -0.28 -0.28 c-0.08 0.02 -0.18 0.06 -0.28 0.1 c-0.42 -0.24 -0.8 -0.24 -1.24 -0.36 c-0.06 -0.08 0 0.06 -0.4 0.06 l-0.22 -0.06 c-0.22 0 -0.44 0.12 -0.68 0.12 c-0.04 0 -0.28 -0.06 -0.32 -0.08 c-0.52 -0.04 -0.9 0.12 -1.58 0.12 c0.36 0.3 0.46 1.26 0.88 1.46 c0 0.02 -0.06 0.54 -0.06 0.66 l-0.16 0 c-0.06 0 -0.06 0.46 -0.06 0.5 l-0.22 0 l-0.02 0.18 c-0.18 0.08 -0.7 0.26 -1.1 0.26 c-0.3 0 -0.76 -0.18 -0.76 -0.22 c-0.14 0.04 -0.26 0.04 -0.22 0.04 c-0.36 -0.66 -0.76 -0.3 -0.76 -1.44 c0.16 -0.06 0.06 -0.28 0.12 -0.4 c0.12 0.28 0.26 -1.08 0.72 -1.08 c0.02 0 0.06 0 0.08 0.02 l0 -0.06 l-0.06 -0.12 l0.44 0 c0 -0.04 -0.04 -0.16 -0.04 -0.22 c0.34 -0.18 0.78 -0.56 1.22 -0.56 l0.28 0 c0.56 0 0.06 -0.42 0.56 -0.42 c0.34 0 1.06 0.46 1.18 0.46 c0.06 -0.08 0.2 -0.16 0.22 -0.16 l0 0.12 s0 0.16 0.06 0.16 c0.08 0 0.12 -0.02 0.18 -0.06 c0.1 -0.02 -0.12 -0.1 -0.12 -0.16 s0 -0.12 0.06 -0.12 c0.66 0 0.98 0.04 1.5 0.08 l0.12 -0.06 c0.1 0.06 0.56 0.22 0.72 0.22 c0.06 -0.06 0.24 -0.06 0.34 -0.06 c0.34 0 1.4 0.58 1.62 0.76 c0.08 0.12 0.12 0.3 0.28 0.22 c0.12 0.06 0.78 0.84 0.78 0.9 l0 0.94 c0.16 0.2 0.18 1.32 0.3 1.3 c0 -0.12 -0.28 1.02 -0.28 1.52 l0.12 0.16 c0 0.06 0 0.22 -0.02 0.28 c0 0.02 0.02 0.1 0.02 0.18 s-0.02 0.16 -0.08 0.22 l0 0.78 c-0.06 0.06 -0.06 0.1 -0.06 0.16 c0 0.46 0.16 1.06 0.38 1.46 l0.08 0 c0.3 0 0.5 0.18 0.76 0.18 c0.06 0 0.12 0 0.12 -0.1 l0.04 0.06 c0.34 0.08 0.38 -0.56 0.8 -0.56 c0.04 0 0.1 0 0.1 0.04 l0 -0.1 c0 -0.32 0.2 -0.24 0.24 -0.4 c-0.12 -0.24 0.18 -0.42 0.18 -0.62 c0.02 -0.1 -0.12 -0.36 -0.18 -0.56 l0.12 0 s0.06 -0.22 0.06 -0.32 c0.02 -0.08 0 -0.14 -0.06 -0.24 c0.08 -0.24 0.32 -0.08 0.32 -0.46 c0 -0.06 -0.02 -0.1 -0.08 -0.1 c0.06 -0.04 0.12 -0.14 0.18 -0.26 c-0.06 0 -0.24 0.04 -0.24 0.16 c-0.08 -0.04 0.08 -0.14 0.28 -0.26 c0.38 -0.08 0.6 0.76 0.6 1.06 c0 0.68 -0.16 1.56 -0.46 2.18 c-0.06 0.18 -0.62 0.66 -0.62 0.82 c-0.16 0 -0.44 0.28 -0.5 0.46 c-0.56 0 0 0.36 -2.08 0.36 c-0.22 0 -0.44 -0.1 -0.62 -0.1 z M103.38000000000001 19.9 c0.02 0 0.04 0.02 0.04 0.06 c0 0.02 -0.02 0.06 -0.04 0.06 s-0.04 -0.04 -0.04 -0.06 c0 -0.04 0.02 -0.06 0.04 -0.06 z M97.62 17.8 c0 0.6 0.14 0.96 0.6 1.44 c0.28 -0.16 0.44 0.2 0.68 0.2 c0.06 0 0.1 -0.02 0.14 -0.02 c0.1 0 0.26 0.3 0.42 0.3 s0.4 -0.22 0.56 -0.22 c0.1 0 0.16 0.1 0.22 0.16 c0.22 0 0.38 -0.34 0.62 -0.34 c0.08 0.04 0.16 0.06 0.22 0.06 l0.06 -0.06 c0.1 0 0.16 0.06 0.22 0.06 c0.4 0 0.38 -0.36 0.78 -0.48 c0.3 0 0.34 -0.74 0.7 -0.96 l0 -0.06 c-0.04 -0.04 -0.06 0 -0.06 -0.1 c0.14 -0.06 0 -0.44 0.1 -0.4 c0 -0.04 -0.16 -0.28 -0.16 -0.38 c0 -0.12 0.24 -0.74 0.24 -0.9 c0.06 -0.22 0 -0.68 0.12 -0.9 c0.06 -0.16 -0.18 -0.22 -0.34 -0.22 c-0.44 0 -0.68 0.38 -0.9 0.44 c-0.06 -0.06 -0.24 -0.08 -0.28 -0.12 c-0.14 0 -0.5 0.18 -0.5 0.4 l0 0.04 c-0.12 -0.06 -0.22 -0.18 -0.4 -0.18 c-0.22 0 -0.56 0.24 -0.78 0.3 c-0.22 0.04 -0.56 0 -0.78 0.08 c-0.18 0.12 -0.34 0.34 -0.5 0.4 c-0.78 0.02 -0.98 0.84 -0.98 1.46 z M103.2 19.34 c-0.02 0 -0.04 0.02 -0.04 0.06 c0 0.02 0.02 0.06 0.04 0.06 c0.04 0 0.04 -0.04 0.04 -0.06 c0 -0.04 0 -0.06 -0.04 -0.06 z M107.46000000000001 19.22 c0 -0.04 -0.02 -0.04 -0.02 -0.04 c-0.02 0 -0.04 0 -0.04 0.04 c0 0.02 0.02 0.04 0.04 0.04 c0 0 0.02 -0.02 0.02 -0.04 z M94.76 17.44 c0.04 0 0.04 0.02 0.04 0.04 c0 0.04 0 0.06 -0.04 0.06 c-0.02 0 -0.04 -0.02 -0.04 -0.06 c0 -0.02 0.02 -0.04 0.04 -0.04 z M94.88000000000001 16.98 c-0.02 0 -0.04 0.02 -0.04 0.02 c0 0.02 0.02 0.04 0.04 0.04 c0.04 0 0.04 -0.02 0.04 -0.04 c0 0 0 -0.02 -0.04 -0.02 z M108.2 16.98 l0 0.06 l0.06 0 l0 -0.06 l-0.06 0 z M99.78 15 c-0.02 0 -0.04 0.02 -0.04 0.06 c0 0.02 0.02 0.06 0.04 0.06 s0.04 -0.04 0.04 -0.06 c0 -0.04 -0.02 -0.06 -0.04 -0.06 z M100.84 14.68 c-0.02 0 -0.04 0.02 -0.04 0.04 c0 0.04 0.02 0.06 0.04 0.06 c0.04 0 0.04 -0.02 0.04 -0.06 c0 -0.02 0 -0.04 -0.04 -0.04 z M101.28 14.5 c0 0.02 -0.02 0.04 -0.02 0.04 c-0.02 0 -0.04 -0.02 -0.04 -0.04 c0 -0.04 0.02 -0.04 0.04 -0.04 c0 0 0.02 0 0.02 0.04 z M101.4 14.4 c0 0.02 -0.02 0.02 -0.02 0.02 c-0.02 0 -0.04 0 -0.04 -0.02 c0 -0.04 0.02 -0.04 0.04 -0.04 c0 0 0.02 0 0.02 0.04 z M117.02 24.14 c0.02 -0.4 0.86 -0.7 1.2 -0.7 c0.06 0 0.38 0.16 0.44 0.28 c0.06 -0.12 0.46 -0.24 0.56 -0.24 l0.06 0.06 c0.08 -0.08 0.12 -0.1 0.18 -0.1 c0.04 0 0.08 0.02 0.16 0.02 c0.6 -0.16 0.72 -0.34 0.94 -1.02 c0 -0.06 -0.02 -0.14 -0.04 -0.22 c0.02 -0.24 0.18 -0.48 0.18 -0.72 c0 -0.18 -0.06 -0.28 -0.06 -0.46 c0 -0.1 0 -0.34 0.12 -0.38 c-0.18 0 -0.18 0 -0.18 -0.12 s0 -0.34 0.12 -0.4 c0.08 -0.4 0.08 -0.78 0.08 -1.18 l-0.06 -0.04 l0 -0.52 l-0.12 0 c0 -0.28 0.18 -0.5 0.18 -0.78 c0 -0.1 -0.2 -0.44 -0.2 -0.56 c0 -0.46 0 -0.78 0.1 -1.18 c0 -0.08 -0.08 -0.16 -0.06 -0.22 l0.06 0 c0 -0.14 -0.1 -0.42 -0.1 -0.5 l0.1 -0.12 l-0.06 -0.1 c0.02 -0.1 0.02 -0.12 0.04 -0.12 c0.04 0 0.1 0.06 0.16 0.06 c0 -0.12 -0.18 -0.34 -0.18 -0.5 l0 -0.06 l0.18 0 c0 -0.06 -0.04 -0.08 -0.1 -0.08 c-0.04 0 -0.1 0.02 -0.12 0.02 l0 -0.1 l0.22 0 c0 -0.28 -0.12 -0.24 -0.22 -0.4 l0.1 -0.12 c0 0.02 -0.02 -0.16 -0.1 -0.28 c-0.02 -0.1 0.04 -0.08 0.04 -0.22 l-0.1 -0.06 c0 -0.1 0.06 -0.14 0.06 -0.22 l-0.12 -0.22 c0.02 -0.16 0.08 -0.22 0.08 -0.4 c0 -0.56 -0.68 -0.78 -1.02 -1.22 l-0.5 -0.02 c-0.04 -0.16 -0.18 -0.18 -0.28 -0.18 c-0.24 0 -0.36 0.08 -0.42 0.08 c0.18 0 -0.98 -0.02 -0.98 -0.4 c0 -0.4 0.38 -0.54 0.58 -0.68 c0.34 0.08 0.72 0.14 1.06 0.14 c0.12 0 0.24 -0.02 0.34 -0.02 c0.06 0.1 0.18 0.1 0.22 0.12 c0 -0.2 0 -0.16 0.06 -0.22 c0.34 0 1 0.06 1.06 0.28 c0.06 0 0.56 -0.16 0.62 -0.16 c0.04 0 0.08 -0.02 0.34 0.04 l0.16 -0.1 c0.06 0.02 0.4 0.02 0.46 0.02 l0.16 -0.06 c0.34 0.06 0.66 0.78 0.66 1.06 c0 0.18 -0.12 0.28 -0.12 0.46 l0.18 0 c-0.06 0.04 -0.18 0.28 -0.18 0.32 l0 0.06 l0.12 0 c-0.06 0.06 -0.22 0.28 -0.22 0.4 c0 0 0.06 0.22 0.1 0.22 c0.06 -0.06 0.14 -0.1 0.14 -0.16 c0 -0.02 0 -0.04 -0.02 -0.06 l0.28 -0.28 c0.1 -0.02 -0.12 -0.2 -0.12 -0.24 c0 -0.12 0.28 -0.26 0.34 -0.32 c0.2 0 0.18 -0.36 0.4 -0.5 c0.16 -0.16 1.92 -0.94 2.04 -0.94 c0.1 0 0.16 0.06 0.32 0.06 c0.28 0 0.62 -0.16 0.9 -0.16 c0.12 0 0.62 0.06 0.74 0.18 l-0.06 0.1 l0.1 0 l0.18 -0.28 l0.06 0.12 l0.28 0 l0.04 -0.18 c0.06 0 0.18 0.26 0.24 0.26 c0.16 0.22 0.48 0.16 0.78 0.16 c0.56 0.42 1.3 0.62 1.88 1.04 c0.12 0.04 0.12 0.22 0.22 0.32 c0.22 0.18 0.52 0.24 0.74 0.4 c0.1 0.12 0.38 0.62 0.56 0.62 c0 0.28 0.36 0.52 0.36 0.86 c-0.06 0.06 -0.04 0.1 -0.04 0.1 c0.6 0.68 0.56 0.8 0.64 1.64 c0.04 0.14 0.12 0.28 0.12 0.44 c0.02 0.32 -0.18 0.74 -0.18 1.1 l0 0.08 l-0.04 -0.06 c-0.12 0.12 -0.18 0.34 -0.24 0.5 c-0.1 -0.04 -1.46 1.56 -1.58 1.6 c-0.46 0.34 -1.6 0.82 -2.16 1 c-0.22 0.06 -0.32 0.28 -0.66 0.28 c-0.12 0 -0.18 0 -0.28 -0.12 c-0.12 0.18 -0.56 0.26 -0.74 0.26 c-0.02 0.02 -0.1 -0.02 -0.16 -0.04 c-0.16 0 -0.4 0.1 -0.56 0.1 l-0.16 -0.06 c-0.14 0 -0.38 0.06 -0.46 0.06 l-0.22 -0.06 l-0.12 0.06 c-0.5 -0.02 -1.78 -0.64 -2.16 -0.98 c-0.16 -0.12 -0.36 -0.46 -0.38 -0.46 c-0.08 -0.28 -0.24 -0.24 -0.4 -0.4 c-0.16 -0.22 -0.44 -0.66 -0.68 -0.84 c-0.08 0.04 -0.1 0.14 -0.1 0.26 c0 0.36 0.1 0.74 0.1 1.2 c0 0.26 0 0.32 -0.04 0.46 l0.08 0.1 c0.02 0.18 -0.1 0.44 -0.1 0.56 l0.1 0.24 c0.02 -0.02 0 0.06 -0.1 0.1 c0 0.1 0.06 0.08 0.1 0.12 c0 0.16 0 1 -0.02 1.18 c0.02 0.04 0.22 0.94 0.28 1.28 c0.1 0.5 1.48 0.58 1.86 0.58 l0.38 0 l0.34 -0.12 l0.06 0.06 c0.02 0.1 0.02 -0.1 0.28 -0.1 c0.1 0 0.28 0.4 0.28 0.58 c-0.06 0.6 -0.96 0.22 -0.98 0.42 c-0.04 0 -0.26 -0.04 -0.44 -0.12 l-0.06 0.06 c-0.14 0.02 -0.2 -0.06 -0.28 -0.06 s-0.1 0.02 -0.16 0.06 c0.02 -0.12 -0.18 -0.02 -0.46 -0.12 c-0.1 0 -0.34 0.1 -0.44 0.1 l-0.12 -0.1 c-0.06 0.1 -0.16 0.1 -0.22 0.1 c-0.16 0 -0.28 -0.1 -0.4 -0.1 l-0.04 0.04 c-0.08 0.02 -0.14 0 -0.24 -0.04 l-0.1 0.04 l-0.18 -0.04 c-0.1 0 -0.28 0.1 -0.38 0.1 c-0.04 -0.02 -0.22 -0.12 -0.34 -0.12 c-0.06 0 -0.18 0.1 -0.22 0.1 c-0.4 0 -0.78 0.06 -1.08 0.06 c0.08 0 -0.4 -0.06 -0.56 -0.06 c-0.44 0 -1.14 0.2 -1.12 0.26 c-0.22 0 -0.38 -0.06 -0.6 -0.1 c-0.28 -0.06 -0.96 0.08 -0.96 -0.42 z M125.48 24.34 c-0.02 0 -0.04 0.02 -0.04 0.06 c0 0.02 0.02 0.04 0.04 0.04 c0.04 0 0.04 -0.02 0.04 -0.04 c0 -0.04 0 -0.06 -0.04 -0.06 z M126.38 24.3 c0.04 0 0.04 0.02 0.04 0.06 c0 0.02 0 0.04 -0.04 0.04 c-0.02 0 -0.04 -0.04 -0.04 -0.06 s0 -0.04 0.02 -0.04 l0.02 0 z M126.12 23.72 l-0.06 0.1 c0.04 -0.04 0.06 0 0.06 -0.1 z M125.22 23.5 c0.04 0 0.04 0.02 0.04 0.06 c0 0.02 0 0.04 -0.04 0.04 c-0.02 0 -0.04 -0.02 -0.04 -0.04 c0 -0.04 0.02 -0.06 0.04 -0.06 z M122.38 20.72 c-0.02 0 -0.04 0.02 -0.04 0.04 c0 0 0.02 0.02 0.04 0.02 c0.04 0 0.04 -0.02 0.04 -0.02 c0 -0.02 0 -0.04 -0.04 -0.04 z M122.88 20.68 c-0.02 0 -0.02 0.02 -0.02 0.06 c0 0.02 0 0.04 0.02 0.04 c0.04 0 0.04 -0.02 0.04 -0.04 c0 -0.04 0 -0.06 -0.04 -0.06 z M129.1 19.84 c-0.02 0 -0.04 0.02 -0.04 0.04 c0 0.04 0.02 0.06 0.04 0.06 c0.04 0 0.04 -0.02 0.04 -0.06 c0 -0.02 0 -0.04 -0.04 -0.04 z M120.86 19.64 c-0.02 0 -0.02 0.02 -0.02 0.06 c0 0.02 0 0.06 0.02 0.06 c0.04 0 0.04 -0.04 0.04 -0.06 c0 -0.04 0 -0.06 -0.04 -0.06 z M125.04 19.06 c0.26 0 0.38 0.12 0.66 0.12 c0.08 -0.02 0.52 0.4 1 0.4 c0.06 0 0.16 -0.04 0.28 -0.04 c0.16 0 0.16 0.04 0.28 0.04 l0.12 -0.1 l0.04 0.1 c0.08 -0.06 0.46 0.08 0.78 -0.04 c0.14 -0.06 0.2 -0.24 0.42 -0.24 c0 0 0.06 0.08 0.12 0.08 l0 -0.16 l0.16 0.1 l0.5 -0.32 l0.12 0.1 c0.06 -0.16 0.58 -0.5 0.9 -0.78 c0 0 0.24 -0.58 0.36 -0.58 c0 0 0.02 0 0.02 0.02 c0 -0.04 0.1 -1.06 0.28 -1.06 c0.02 0 0.02 0 0.02 0.02 c0 -0.06 0.06 -0.18 0.06 -0.22 c0.04 -0.12 -0.06 -0.1 -0.06 -0.24 c0 -0.04 0.12 0 0.12 -0.1 c0 -0.06 0 -0.12 -0.06 -0.12 c0.06 -0.64 0.14 -0.92 0.3 -1.46 c-0.02 0.04 -0.22 -0.7 -0.22 -1.06 c-0.08 -0.24 -0.4 -0.54 -0.4 -0.76 l0 -0.16 c0 -0.26 -0.54 -0.54 -0.54 -0.84 c-0.06 -0.1 -1 -0.72 -1.22 -0.88 c-0.24 -0.18 -0.46 -0.02 -0.68 -0.2 l-1.56 0 c-0.12 0.04 -0.22 0.04 -0.32 0.04 c-0.28 0 -0.52 0.02 -0.58 -0.06 c-0.56 0.1 -0.8 0.56 -1.4 0.68 c-0.54 0.18 -1.02 1.34 -1.18 1.26 c-0.08 0.06 -0.14 0.84 -0.18 0.96 l-0.12 0.16 c0 0.06 0.06 0.12 0.12 0.12 c-0.26 0.1 -0.26 0.9 -0.26 1.18 c0 1.4 0.24 2 0.94 3.08 c0.12 0.16 0.4 0.18 0.5 0.4 c0.06 0.12 0.68 0.5 0.68 0.56 z M120.78 18.18 c-0.02 0 -0.04 0.02 -0.04 0.02 c0 0.02 0.02 0.04 0.04 0.04 c0.04 0 0.04 -0.02 0.04 -0.04 c0 0 0 -0.02 -0.04 -0.02 z M121.62 17.84 c-0.02 0 -0.04 0.02 -0.04 0.06 c0 0.02 0.02 0.06 0.04 0.06 c0.04 0 0.04 -0.04 0.04 -0.06 c0 -0.04 0 -0.06 -0.04 -0.06 z M121.9 17.7 c0 -0.04 -0.02 -0.04 -0.02 -0.04 c-0.02 0 -0.04 0 -0.04 0.04 c0 0.02 0.02 0.04 0.04 0.04 c0 0 0.02 -0.02 0.02 -0.04 z M120.8 16.56 c-0.02 0 -0.04 0.02 -0.04 0.02 c0 0.02 0.02 0.04 0.04 0.04 c0.04 0 0.04 -0.02 0.04 -0.04 c0 0 0 -0.02 -0.04 -0.02 z M120.74 16.34 c-0.02 0 -0.04 0.02 -0.04 0.04 c0 0.04 0.02 0.06 0.04 0.06 c0.04 0 0.04 -0.02 0.04 -0.06 c0 -0.02 0 -0.04 -0.04 -0.04 z M122.54 15.86 c0 -0.04 -0.02 -0.04 -0.02 -0.04 c-0.02 0 -0.04 0 -0.04 0.04 c0 0.02 0.02 0.02 0.04 0.02 c0 0 0.02 0 0.02 -0.02 z M131.28 15.6 l0 0.06 l0.04 0 l0 -0.06 l-0.04 0 z M133.76 14.280000000000001 c-0.02 0 -0.04 0.02 -0.04 0.04 c0 0.04 0.02 0.06 0.04 0.06 c0.04 0 0.04 -0.02 0.04 -0.06 c0 -0.02 0 -0.04 -0.04 -0.04 z M122.16 13.719999999999999 c-0.02 0 -0.04 0.02 -0.04 0.06 c0 0.02 0.02 0.06 0.04 0.06 c0.04 0 0.04 -0.04 0.04 -0.06 c0 -0.04 0 -0.06 -0.04 -0.06 z M132.36 12.86 c-0.06 0 -0.06 0.04 -0.06 0.1 l0.06 0 l0 -0.1 z M120.38 11.92 c0.04 0 0.04 0.02 0.04 0.04 c0 0.04 0 0.06 -0.04 0.06 c-0.02 0 -0.02 -0.02 -0.02 -0.06 c0 -0.02 0 -0.04 0.02 -0.04 z M124.08 10.92 c-0.02 0 -0.02 0.02 -0.02 0.06 c0 0.02 0 0.06 0.02 0.06 c0.04 0 0.04 -0.02 0.04 -0.04 c0 -0.04 0 -0.08 -0.04 -0.08 z M119.1 10.82 c-0.02 0 -0.04 0.02 -0.04 0.06 c0 0.02 0.02 0.06 0.04 0.06 c0.04 0 0.04 -0.04 0.04 -0.06 c0 -0.04 0 -0.06 -0.04 -0.06 z M119.38 10.82 c-0.02 0 -0.04 0.02 -0.04 0.06 c0 0.02 0.02 0.06 0.04 0.06 c0.04 0 0.04 -0.04 0.04 -0.06 c0 -0.04 0 -0.06 -0.04 -0.06 z M124.04 10.86 c-0.02 0 -0.04 0.02 -0.04 0.06 c0 0.02 0.02 0.06 0.04 0.06 s0.04 -0.04 0.04 -0.06 c0 -0.04 -0.02 -0.06 -0.04 -0.06 z M125.72 10.66 c-0.02 0 -0.04 0.02 -0.04 0.06 c0 0.02 0.02 0.06 0.04 0.06 s0.04 -0.04 0.04 -0.06 c0 -0.04 -0.02 -0.06 -0.04 -0.06 z M129.58 10.42 c-0.02 0 -0.04 0.02 -0.04 0.06 c0 0.02 0.02 0.06 0.04 0.06 c0.04 0 0.04 -0.04 0.04 -0.06 c0 -0.04 0 -0.06 -0.04 -0.06 z M119.68 10.24 c-0.02 0 -0.04 0 -0.04 0.02 c0 0 0.02 0.02 0.04 0.02 c0.04 0 0.04 -0.02 0.04 -0.02 c0 -0.02 0 -0.02 -0.04 -0.02 z M129.14 10.26 c-0.02 0 -0.02 0.02 -0.02 0.02 c0 0.02 0 0.04 0.02 0.04 c0.04 0 0.04 -0.02 0.04 -0.04 c0 0 0 -0.02 -0.04 -0.02 z M145.88 20.66 c-0.1 0 -0.16 0 -0.28 0.04 l0 -0.16 l-0.32 0 c-0.26 -0.48 -0.36 0.1 -1.02 -1.02 l-0.1 0 l0 -0.24 c-0.12 0.12 -0.18 0.06 -0.34 0.12 c-0.5 0.7 -1.18 0.66 -1.68 1.1 c-0.12 0 -0.36 -0.06 -0.4 -0.06 c-0.06 0 -0.16 0.06 -0.22 0.06 c-0.1 0 -0.3 -0.02 -0.4 -0.06 c-0.08 0.2 -0.3 0.22 -0.84 0.22 c-0.3 0 -0.6 -0.12 -0.9 -0.12 c-0.1 0 -0.16 0.06 -0.28 0.06 c-0.38 0 -0.72 -0.28 -1.06 -0.4 c-0.54 -0.06 -0.8 -0.28 -1.06 -0.52 c-0.08 0 -0.1 0.02 -0.16 0.06 c-0.06 -0.2 -0.42 -0.58 -0.5 -0.58 l-0.08 0 c0.04 0 -0.3 -0.16 -0.3 -0.38 c0.02 0.04 -0.28 -0.42 -0.28 -0.58 c0 -0.06 0.1 -0.14 0.16 -0.14 c-0.16 -0.14 -0.22 -0.26 -0.22 -0.36 s0 -0.16 0.08 -0.16 c0.06 0 0.06 0.06 0.08 0.12 c0.06 -0.06 0.12 -0.12 0.12 -0.22 c0 -0.06 -0.12 -0.18 -0.12 -0.18 l-0.04 0 l0 0.18 c-0.06 -0.02 -0.12 -0.14 -0.12 -0.2 c0 -0.16 0.22 -0.26 0.22 -0.42 l-0.06 -0.12 c0.06 -0.1 0.4 -0.32 0.64 -0.56 c0.12 -0.04 1.18 -0.38 1.18 -0.44 l-0.06 -0.12 l0.1 0 c0.22 0 0.2 -0.14 0.34 -0.14 c0.08 0 0.2 0.1 0.3 0.1 c0.1 -0.04 0.44 -0.28 0.66 -0.28 l0.12 0.06 c0.14 -0.1 0.4 -0.16 0.5 -0.16 l0.06 0.06 l0.16 -0.06 c0.1 0.06 0.26 0.1 0.28 0.1 c0.1 0 0.12 -0.3 0.84 -0.3 l0.12 0.1 c0.16 0 0.62 -0.28 0.62 -0.38 c0.2 0 0.36 -0.02 0.44 0.04 l0.74 -0.2 c0.1 -0.06 0.02 -0.22 0.18 -0.28 l0.1 0.12 c-0.02 0.06 0.2 -0.08 0.3 -0.18 l-0.02 0.18 c0.14 -0.18 0.68 -0.28 0.68 -0.62 c-0.08 -0.06 -0.06 -0.58 -0.06 -0.72 c-0.04 0 -0.3 -1.02 -0.3 -1.12 c-0.34 0 -0.12 -0.28 -0.28 -0.28 c-0.08 0.02 -0.18 0.06 -0.28 0.1 c-0.42 -0.24 -0.8 -0.24 -1.24 -0.36 c-0.06 -0.08 0 0.06 -0.4 0.06 l-0.22 -0.06 c-0.22 0 -0.44 0.12 -0.68 0.12 c-0.04 0 -0.28 -0.06 -0.32 -0.08 c-0.52 -0.04 -0.9 0.12 -1.58 0.12 c0.36 0.3 0.46 1.26 0.88 1.46 c0 0.02 -0.06 0.54 -0.06 0.66 l-0.16 0 c-0.06 0 -0.06 0.46 -0.06 0.5 l-0.22 0 l-0.02 0.18 c-0.18 0.08 -0.7 0.26 -1.1 0.26 c-0.3 0 -0.76 -0.18 -0.76 -0.22 c-0.14 0.04 -0.26 0.04 -0.22 0.04 c-0.36 -0.66 -0.76 -0.3 -0.76 -1.44 c0.16 -0.06 0.06 -0.28 0.12 -0.4 c0.12 0.28 0.26 -1.08 0.72 -1.08 c0.02 0 0.06 0 0.08 0.02 l0 -0.06 l-0.06 -0.12 l0.44 0 c0 -0.04 -0.04 -0.16 -0.04 -0.22 c0.34 -0.18 0.78 -0.56 1.22 -0.56 l0.28 0 c0.56 0 0.06 -0.42 0.56 -0.42 c0.34 0 1.06 0.46 1.18 0.46 c0.06 -0.08 0.2 -0.16 0.22 -0.16 l0 0.12 s0 0.16 0.06 0.16 c0.08 0 0.12 -0.02 0.18 -0.06 c0.1 -0.02 -0.12 -0.1 -0.12 -0.16 s0 -0.12 0.06 -0.12 c0.66 0 0.98 0.04 1.5 0.08 l0.12 -0.06 c0.1 0.06 0.56 0.22 0.72 0.22 c0.06 -0.06 0.24 -0.06 0.34 -0.06 c0.34 0 1.4 0.58 1.62 0.76 c0.08 0.12 0.12 0.3 0.28 0.22 c0.12 0.06 0.78 0.84 0.78 0.9 l0 0.94 c0.16 0.2 0.18 1.32 0.3 1.3 c0 -0.12 -0.28 1.02 -0.28 1.52 l0.12 0.16 c0 0.06 0 0.22 -0.02 0.28 c0 0.02 0.02 0.1 0.02 0.18 s-0.02 0.16 -0.08 0.22 l0 0.78 c-0.06 0.06 -0.06 0.1 -0.06 0.16 c0 0.46 0.16 1.06 0.38 1.46 l0.08 0 c0.3 0 0.5 0.18 0.76 0.18 c0.06 0 0.12 0 0.12 -0.1 l0.04 0.06 c0.34 0.08 0.38 -0.56 0.8 -0.56 c0.04 0 0.1 0 0.1 0.04 l0 -0.1 c0 -0.32 0.2 -0.24 0.24 -0.4 c-0.12 -0.24 0.18 -0.42 0.18 -0.62 c0.02 -0.1 -0.12 -0.36 -0.18 -0.56 l0.12 0 s0.06 -0.22 0.06 -0.32 c0.02 -0.08 0 -0.14 -0.06 -0.24 c0.08 -0.24 0.32 -0.08 0.32 -0.46 c0 -0.06 -0.02 -0.1 -0.08 -0.1 c0.06 -0.04 0.12 -0.14 0.18 -0.26 c-0.06 0 -0.24 0.04 -0.24 0.16 c-0.08 -0.04 0.08 -0.14 0.28 -0.26 c0.38 -0.08 0.6 0.76 0.6 1.06 c0 0.68 -0.16 1.56 -0.46 2.18 c-0.06 0.18 -0.62 0.66 -0.62 0.82 c-0.16 0 -0.44 0.28 -0.5 0.46 c-0.56 0 0 0.36 -2.08 0.36 c-0.22 0 -0.44 -0.1 -0.62 -0.1 z M144.44 19.9 c0.02 0 0.04 0.02 0.04 0.06 c0 0.02 -0.02 0.06 -0.04 0.06 s-0.04 -0.04 -0.04 -0.06 c0 -0.04 0.02 -0.06 0.04 -0.06 z M138.68 17.8 c0 0.6 0.14 0.96 0.6 1.44 c0.28 -0.16 0.44 0.2 0.68 0.2 c0.06 0 0.1 -0.02 0.14 -0.02 c0.1 0 0.26 0.3 0.42 0.3 s0.4 -0.22 0.56 -0.22 c0.1 0 0.16 0.1 0.22 0.16 c0.22 0 0.38 -0.34 0.62 -0.34 c0.08 0.04 0.16 0.06 0.22 0.06 l0.06 -0.06 c0.1 0 0.16 0.06 0.22 0.06 c0.4 0 0.38 -0.36 0.78 -0.48 c0.3 0 0.34 -0.74 0.7 -0.96 l0 -0.06 c-0.04 -0.04 -0.06 0 -0.06 -0.1 c0.14 -0.06 0 -0.44 0.1 -0.4 c0 -0.04 -0.16 -0.28 -0.16 -0.38 c0 -0.12 0.24 -0.74 0.24 -0.9 c0.06 -0.22 0 -0.68 0.12 -0.9 c0.06 -0.16 -0.18 -0.22 -0.34 -0.22 c-0.44 0 -0.68 0.38 -0.9 0.44 c-0.06 -0.06 -0.24 -0.08 -0.28 -0.12 c-0.14 0 -0.5 0.18 -0.5 0.4 l0 0.04 c-0.12 -0.06 -0.22 -0.18 -0.4 -0.18 c-0.22 0 -0.56 0.24 -0.78 0.3 c-0.22 0.04 -0.56 0 -0.78 0.08 c-0.18 0.12 -0.34 0.34 -0.5 0.4 c-0.78 0.02 -0.98 0.84 -0.98 1.46 z M144.26000000000002 19.34 c-0.02 0 -0.04 0.02 -0.04 0.06 c0 0.02 0.02 0.06 0.04 0.06 c0.04 0 0.04 -0.04 0.04 -0.06 c0 -0.04 0 -0.06 -0.04 -0.06 z M148.52 19.22 c0 -0.04 -0.02 -0.04 -0.02 -0.04 c-0.02 0 -0.04 0 -0.04 0.04 c0 0.02 0.02 0.04 0.04 0.04 c0 0 0.02 -0.02 0.02 -0.04 z M135.82000000000002 17.44 c0.04 0 0.04 0.02 0.04 0.04 c0 0.04 0 0.06 -0.04 0.06 c-0.02 0 -0.04 -0.02 -0.04 -0.06 c0 -0.02 0.02 -0.04 0.04 -0.04 z M135.94 16.98 c-0.02 0 -0.04 0.02 -0.04 0.02 c0 0.02 0.02 0.04 0.04 0.04 c0.04 0 0.04 -0.02 0.04 -0.04 c0 0 0 -0.02 -0.04 -0.02 z M149.26000000000002 16.98 l0 0.06 l0.06 0 l0 -0.06 l-0.06 0 z M140.84 15 c-0.02 0 -0.04 0.02 -0.04 0.06 c0 0.02 0.02 0.06 0.04 0.06 s0.04 -0.04 0.04 -0.06 c0 -0.04 -0.02 -0.06 -0.04 -0.06 z M141.9 14.68 c-0.02 0 -0.04 0.02 -0.04 0.04 c0 0.04 0.02 0.06 0.04 0.06 c0.04 0 0.04 -0.02 0.04 -0.06 c0 -0.02 0 -0.04 -0.04 -0.04 z M142.34 14.5 c0 0.02 -0.02 0.04 -0.02 0.04 c-0.02 0 -0.04 -0.02 -0.04 -0.04 c0 -0.04 0.02 -0.04 0.04 -0.04 c0 0 0.02 0 0.02 0.04 z M142.46 14.4 c0 0.02 -0.02 0.02 -0.02 0.02 c-0.02 0 -0.04 0 -0.04 -0.02 c0 -0.04 0.02 -0.04 0.04 -0.04 c0 0 0.02 0 0.02 0.04 z M157.44000000000003 20.2 l-0.1 0.06 c-0.48 0.04 -0.9 -0.22 -1.32 -0.22 c-0.18 0 -0.3 0.06 -0.46 0.06 c0 0 -0.12 -0.02 -0.12 -0.08 l-0.12 0.12 c-0.3 0.02 -0.6 -0.06 -0.88 -0.06 s-0.64 0.1 -0.92 0.1 c-0.06 0 -0.64 -0.06 -0.7 -0.06 c-0.18 0.02 -0.34 -0.04 -0.48 0.04 l-0.88 0 s-0.04 -0.1 -0.04 -0.16 c-0.1 -1.04 0.64 -0.4 0.94 -0.78 c0.18 0 0.28 0.1 0.52 0.1 c0.32 0 1.22 -0.24 1.22 -0.7 c0 -0.06 -0.06 -0.06 -0.06 -0.16 c0 -0.52 0.3 -0.84 0.3 -1.3 c0.04 -0.04 -0.04 -0.18 -0.04 -0.28 c0.04 -0.02 0.08 -0.24 0.1 -0.28 c0 -0.06 -0.06 -0.06 -0.06 -0.06 l-0.16 0.12 c-0.02 -0.32 0.08 -0.4 0.06 -0.68 l-0.12 0.06 c0 -0.06 -0.06 -0.28 -0.06 -0.34 c0 -0.28 0.3 -0.26 0.3 -0.66 c-0.12 0.06 -0.18 0.04 -0.16 0.04 l0.12 -0.22 c-0.06 -0.06 -0.18 -0.28 -0.24 -0.34 c0 -0.38 0.18 -0.48 0.18 -0.84 c-0.18 0 -0.18 0 -0.18 -0.16 c0 -0.06 0.06 -0.52 0.14 -0.56 c-0.02 -0.12 -0.12 -0.1 -0.12 -0.22 l0.06 -0.06 l-0.34 -0.12 c0.18 0 0.24 -0.32 0.24 -0.44 s-0.34 -0.12 -0.34 -0.34 l-0.78 -0.52 c-0.34 0.12 -0.46 0.12 -0.74 0.12 c-0.1 0 -0.22 -0.06 -0.38 -0.06 c-0.12 0 -0.18 0.22 -0.34 0.22 c-0.38 0 -0.6 -0.48 -0.6 -0.82 c0 -0.74 1.02 -0.28 1.06 -0.58 l0.18 0.06 c0.04 0 0.32 -0.06 0.38 -0.06 l0.06 0 c0.12 0 0.78 0.08 0.78 0.22 l0 0.02 c0.06 0 0.22 -0.06 0.28 -0.06 c0.52 -0.16 1.2 -0.26 1.76 -0.26 c0.38 0 0.42 0.12 0.6 0.12 c0.58 0.16 0.36 0.9 1.04 1.28 l0.06 0 c0.16 -0.76 1.44 -1.1 1.44 -1.1 s-0.02 -0.02 -0.02 -0.04 c0 -0.2 0.8 -0.28 1.06 -0.28 c0.2 0 0.38 0.04 0.56 0.04 c0.22 0 0.36 -0.08 0.56 -0.08 c0.8 -0.02 1.56 0.64 2.06 1.24 c0.32 0.36 0.62 1.26 0.62 1.58 c0 0.16 -0.06 0.34 -0.08 0.5 l-0.18 0 c-0.28 0.72 -0.6 1.06 -1.34 1.22 c-0.06 0 -0.28 0.1 -0.34 0.1 c-0.58 -0.26 -1.4 -0.64 -1.4 -1.36 c0.1 -0.28 -0.02 -0.54 0.08 -0.6 l0.06 0 l0 -0.56 c0 0.12 0.06 0.12 0.12 0.12 c0.16 0 0.44 -0.46 0.5 -0.5 c0.18 0 0.42 -0.28 0.44 -0.28 c0.28 0 0.5 0.28 0.78 0.28 c0 -0.68 -1.1 -0.96 -1.66 -0.96 c-0.22 0 -0.5 0.04 -0.72 0.04 c-0.12 0 -0.28 0.16 -0.4 0.16 c-0.48 0 -0.64 0.28 -0.96 0.5 l-0.06 -0.04 c-0.02 -0.18 -0.12 0.22 -0.28 0.32 c-0.48 0.24 -0.44 0.6 -0.72 0.88 c-0.5 0.24 -0.28 0.82 -0.58 1.02 l0.04 0.04 l0 0.62 l-0.1 0.18 l0 0.72 l-0.12 0.06 c0 0.28 -0.08 0.4 -0.08 0.68 l0.06 0.1 l0 0.9 l-0.06 0.06 c0 0.02 0.12 0.36 0.12 0.66 c-0.02 0.02 0.38 0.88 0.38 1.18 c0.16 0 0.44 0.18 0.56 0.34 c0.28 0.06 0.38 0.08 0.66 0.08 c0.2 0 0.22 0 0.34 -0.06 l0.12 0.06 c0.08 0 0.56 -0.14 0.76 -0.14 c0.22 0 0.36 0.42 0.36 0.64 c0 0.06 -0.12 0.34 -0.28 0.34 l-0.62 0 l-0.08 0.06 c-0.04 0 -0.16 -0.06 -0.32 -0.06 c-0.22 0 -0.64 0.04 -0.86 0.2 l0.06 0 z M154.26000000000002 14.52 c0 0.1 0.02 0.08 0.06 0.12 l0 -0.06 z M162.26000000000002 13.7 c-0.02 0 -0.02 0.02 -0.02 0.04 c0 0.04 0 0.06 0.02 0.06 c0.04 0 0.04 -0.02 0.04 -0.06 c0 -0.02 0 -0.04 -0.04 -0.04 z M154.26000000000002 13.52 c-0.02 0 -0.04 0.02 -0.04 0.06 c0 0.02 0.02 0.06 0.04 0.06 c0.04 0 0.04 -0.04 0.04 -0.06 c0 -0.04 0 -0.06 -0.04 -0.06 z M161.70000000000002 13.46 c-0.02 0 -0.02 0.02 -0.02 0.06 c0 0.02 0 0.06 0.02 0.06 c0.04 0 0.04 -0.04 0.04 -0.06 c0 -0.04 0 -0.06 -0.04 -0.06 z M161.96 12.86 c-0.02 0 -0.04 0.02 -0.04 0.04 c0 0.04 0.02 0.06 0.04 0.06 s0.04 -0.02 0.04 -0.06 c0 -0.02 -0.02 -0.04 -0.04 -0.04 z M161.28000000000003 12.8 c-0.02 0 -0.04 0.02 -0.04 0.02 c0 0.02 0.02 0.04 0.04 0.04 c0.04 0 0.04 -0.02 0.04 -0.04 c0 0 0 -0.02 -0.04 -0.02 z M163.24 12.7 c-0.02 0 -0.04 0.02 -0.04 0.06 c0 0.02 0.02 0.06 0.04 0.06 c0.04 0 0.04 -0.04 0.04 -0.06 c0 -0.04 0 -0.06 -0.04 -0.06 z M156.64000000000001 11.42 c-0.06 0 -0.12 0 -0.12 0.04 l0.12 0 l0 -0.04 z M162.00000000000003 11.22 c-0.02 0 -0.02 0.02 -0.02 0.06 c0 0.02 0 0.06 0.02 0.06 c0.04 0 0.04 -0.04 0.04 -0.06 c0 -0.04 0 -0.06 -0.04 -0.06 z M156.64000000000001 11.14 c-0.02 0 -0.04 0.02 -0.04 0.04 c0 0.04 0.02 0.06 0.04 0.06 s0.04 -0.02 0.04 -0.06 c0 -0.02 -0.02 -0.04 -0.04 -0.04 z M169.68000000000004 20.1 l-0.14 0.06 c-0.5 0 -0.94 -0.3 -1.38 -0.48 c-0.06 0 -0.44 -0.5 -0.56 -0.62 c-0.44 -0.26 -0.38 -0.56 -0.62 -0.66 l0 -0.54 c0 -0.16 -0.08 -0.22 -0.08 -0.36 c0 -0.12 0.1 -0.22 0.1 -0.4 c0 -0.14 -0.16 -0.2 -0.16 -0.32 c0 -0.02 0.04 -0.16 0.1 -0.24 c0 -0.1 -0.04 -0.14 -0.04 -0.22 l0.04 -0.1 c-0.16 -0.14 -0.06 -0.54 -0.14 -0.68 c0.04 -0.08 0.06 -0.16 0.06 -0.22 l-0.06 -0.12 c0.02 0 -0.04 0 0.06 -0.16 c-0.02 -0.02 -0.04 -0.22 -0.12 -0.24 c0 -0.28 0.18 -0.56 0.18 -0.84 c0 -0.22 -0.18 -0.44 -0.18 -0.6 c0.04 -0.02 0.14 -0.16 0.2 -0.24 c-0.12 0 -0.12 -0.04 -0.12 -0.1 s0.06 -0.12 0.06 -0.22 c0 -0.12 -0.06 -0.24 -0.06 -0.34 c0 -0.28 0.16 -0.62 0.16 -0.96 s-0.32 -0.24 -0.5 -0.4 l-0.9 0 c-0.08 0 -0.28 0.1 -0.38 0.1 l-0.22 -0.1 l-0.18 0.16 c-0.18 0.02 -0.76 -0.02 -0.76 -0.4 c0 -0.22 0.18 -0.5 0.48 -0.5 c0.08 0 0.12 0.06 0.2 0.06 c0.1 0 0.28 -0.22 0.44 -0.22 c0.06 0 0.14 0.02 0.22 0.06 c0.26 0.04 0.3 -0.2 0.4 -0.24 l0.1 0.06 c0.12 0 0.06 -0.16 0.18 -0.16 c0.1 0 0.06 0.1 0.1 0.1 c0.22 0 0.42 -0.24 0.42 -0.22 c0 0 -0.06 0 -0.06 -0.04 c0.02 0.06 0.36 -0.44 1 -0.94 c0.24 -0.18 0.18 -0.46 0.3 -0.56 c0.16 -0.12 0.38 0.1 0.38 -0.4 l-0.06 -0.1 c-0.06 -0.02 0.16 -0.22 0.24 -0.28 c-0.02 0.02 -0.04 0.02 -0.06 0.02 c-0.1 0 -0.18 -0.22 -0.18 -0.3 c0 -0.12 0.12 -0.12 0.12 -0.18 c0 -0.1 -0.12 -0.22 -0.16 -0.28 c0.26 -0.56 0.16 -1.12 0.62 -1.12 c0.62 0 0.58 0.54 0.72 0.86 c0.06 0.06 0.16 0.14 0.12 0.18 c0 0.04 -0.24 0.44 -0.24 0.5 c0 0.22 0.18 0.5 0.18 0.66 c0 0.18 -0.22 0.4 -0.28 0.56 c0 0.24 0.04 0.4 0.04 0.62 c0 0.28 -0.06 0.5 -0.06 0.74 c0 0.5 0.44 0.56 0.9 0.56 c0.22 0 0.4 -0.06 0.5 -0.06 c0.04 -0.04 0.16 0.04 0.28 0.16 l0.28 -0.28 c0.1 0 0.5 0.24 0.62 0.24 c0.04 0 0.16 -0.1 0.16 -0.16 c0.24 0 1.52 -0.2 1.52 0.56 c0 0.22 -0.14 0.28 -0.26 0.44 c-0.68 0 -1.3 -0.12 -1.96 -0.12 c-0.16 0.1 -0.44 0.1 -0.6 0.1 c-0.4 0 -0.9 0 -1.3 -0.1 c-0.22 0.16 -0.28 0.44 -0.28 0.72 c0 0.18 0 0.28 0.06 0.46 l-0.02 1.44 l0.06 0.12 c-0.04 0.06 -0.12 0.28 -0.12 0.44 c0 0.18 0.18 0.34 0.18 0.52 c0 0.16 -0.2 1.06 -0.2 1.12 l0.12 0.1 l0.1 1.08 c0.04 0.04 0.06 0 0.06 0.1 l-0.1 0.12 l-0.02 0.78 c0 0.12 0.16 0.16 0.16 0.28 c0 0.06 -0.06 0.12 -0.06 0.22 c0 0.4 0.5 0.76 0.88 0.76 c0.06 0 0.1 -0.02 0.14 -0.02 l0.04 0.1 c0.38 0 0.8 0.06 0.9 0.06 c0.08 -0.04 0.32 -0.12 0.4 -0.14 l0.1 0.04 c0.34 -0.22 0.62 -0.16 0.9 -0.5 c0.04 0 0.06 0.02 0.08 0.02 c0.1 0 0.14 -0.1 0.26 -0.12 l0 -0.28 c0.2 0 0.7 -0.64 0.7 -1.34 c0 -0.28 -0.06 -0.32 -0.18 -0.52 c0.04 -0.14 0.3 -0.18 0.3 -0.3 s-0.18 -0.32 -0.18 -0.4 c0.18 -0.36 0.02 -0.8 0.52 -0.8 c0.16 -0.06 0.24 0.28 0.34 0.34 l-0.02 1.24 c-0.06 0.06 -0.08 0.16 -0.08 0.26 c0 0.12 0.02 0.2 0.02 0.24 c-0.14 0.96 -1.2 2.28 -2.1 2.68 c-0.18 0.08 -0.68 0.14 -0.96 0.14 l-0.1 0 c-0.12 0.16 -0.46 0.22 -0.68 0.22 c-0.28 0 -0.54 -0.16 -0.88 -0.16 z M172.82000000000002 18.72 c0.02 0 0.04 0.02 0.04 0.04 c0 0.04 -0.02 0.06 -0.04 0.06 s-0.04 -0.02 -0.04 -0.06 c0 -0.02 0.02 -0.04 0.04 -0.04 z M166.96 14.92 c-0.02 0 -0.02 0.02 -0.02 0.02 c0 0.02 0 0.04 0.02 0.04 c0.04 0 0.04 -0.02 0.04 -0.04 c0 0 0 -0.02 -0.04 -0.02 z M166.96 14.14 l-0.04 0.06 l0.04 0 l0 -0.06 z M164.70000000000002 11.14 c-0.02 0 -0.04 0.02 -0.04 0.06 c0 0.02 0.02 0.06 0.04 0.06 s0.04 -0.04 0.04 -0.06 c0 -0.04 -0.02 -0.06 -0.04 -0.06 z M165.16000000000003 10.3 c-0.02 0 -0.04 0.02 -0.04 0.06 c0 0.02 0.02 0.06 0.04 0.06 c0.04 0 0.04 -0.04 0.04 -0.06 c0 -0.04 0 -0.06 -0.04 -0.06 z M166.06000000000003 9.98 c-0.02 0 -0.04 0.02 -0.04 0.04 c0 0.04 0.02 0.06 0.04 0.06 c0.04 0 0.04 -0.02 0.04 -0.06 c0 -0.02 0 -0.04 -0.04 -0.04 z M167.40000000000003 8.98 c-0.06 0.06 -0.12 0.12 -0.12 0.18 c0.1 0 0.14 -0.1 0.12 -0.18 z M168.62000000000003 5.84 c0 -0.02 -0.02 -0.04 -0.02 -0.04 c-0.02 0 -0.04 0.02 -0.04 0.04 s0.02 0.04 0.04 0.04 c0 0 0.02 -0.02 0.02 -0.04 z M174.94 23.5 c-0.12 -0.14 -0.12 -0.42 -0.22 -0.54 c0 -0.66 0.64 -2.04 1.76 -2.04 c0.18 -0.1 1.2 0.6 1.4 0.86 c0.16 0.22 0.28 0.52 0.28 0.78 c0 0.5 -0.24 0.36 -0.48 0.72 c0.04 0.26 -0.2 0.34 -0.32 0.52 l0 0.04 c0.16 0 0.32 0.06 0.5 0.06 c0.28 0 1.4 -0.28 1.68 -0.48 c0.1 -0.06 0.28 -0.4 0.5 -0.4 c0.38 -0.26 1.06 -0.92 1.36 -1.44 c0.06 -0.12 0.48 -1.38 0.48 -1.56 c-0.06 -0.08 0 -0.54 -0.4 -0.98 c-0.24 -0.26 -0.22 -0.72 -0.42 -1 c-0.06 -0.12 -0.4 -0.5 -0.56 -0.5 l0.1 0 c0 -0.56 -0.56 -1.3 -0.82 -1.74 s-0.44 -1.2 -0.72 -1.58 c-0.2 -0.3 -1.16 -1.9 -1.16 -2.2 l-0.72 -0.72 c-0.5 -0.5 -1.88 0.02 -1.9 -0.9 c0 -0.18 0.22 -0.3 0.4 -0.3 c0.02 -0.04 0.14 0.06 0.34 0.06 c0.28 0 0.66 -0.12 0.94 -0.12 c0.12 0 0.4 -0.02 0.56 0.08 l1.12 -0.06 l2.08 0.02 c0.06 0 0.22 -0.04 0.28 -0.04 c0.54 0 1.58 0 1.58 0.4 c0 0.06 -0.12 0.22 -0.24 0.22 l-1.06 -0.02 c-0.26 0 -0.96 0.4 -0.96 0.74 c0 0.96 0.38 1.04 0.38 1.4 s0.4 0.44 0.4 0.62 l-0.02 0.22 c0.06 0.22 0.28 0.38 0.38 0.56 c0.16 0.36 0.26 0.44 0.4 0.68 c0.04 0.64 0.72 1.36 1.04 2.02 c0.12 0.18 0.46 1.02 0.74 1.02 s0.22 -0.56 0.28 -0.68 c0.18 0.02 0.52 -1.12 0.96 -1.5 l0 -0.6 c0.32 -0.32 0.54 -0.7 0.84 -1.08 c0.12 0.18 0.28 -0.46 0.42 -0.78 c0.16 -0.34 0.44 -0.48 0.44 -0.92 c0 -0.12 -0.06 -0.24 -0.06 -0.34 c0 -0.18 0.18 -0.34 0.18 -0.5 c0.02 -0.24 -0.94 -0.64 -1.22 -0.64 c-0.06 0 -0.16 0.06 -0.22 0.06 c-0.02 0 -1.28 -0.12 -1.28 -0.48 c0 -0.32 0.3 -0.36 0.6 -0.36 l0.28 0 c0.06 0 0.62 -0.06 0.68 -0.06 c0.16 0 0.84 0.02 1 0.02 c0 -0.06 0.06 -0.06 0.12 -0.06 c0.44 0 1.06 0.16 1.46 0.16 c0.2 0 0.42 -0.14 0.62 -0.14 c0.34 0 0.84 0.1 0.84 0.56 c0 0.68 -0.56 0.4 -0.9 0.68 c-0.14 0.08 -0.42 0.42 -0.52 0.48 c-0.26 -0.32 -0.6 0.8 -0.8 1.06 c-0.04 0.06 -0.56 0.5 -0.56 0.68 c-0.08 0.56 -0.26 0.52 -0.52 0.86 c-0.34 0.44 -0.28 0.68 -0.5 1.12 c-0.12 0.24 -0.46 0.46 -0.58 0.68 s-0.16 0.62 -0.34 0.84 c-0.16 0.2 -0.38 0.44 -0.44 0.72 c0.08 0.62 -0.58 0.74 -0.8 1.22 c-0.14 1.1 -1.36 1.86 -1.66 3.08 c-0.04 0.22 -0.32 0.2 -0.38 0.38 c-0.3 1 -1.82 1.9 -2.72 2.28 c-0.18 0.02 -0.34 0.04 -0.44 0.1 l-1.86 -0.02 c-0.58 0 -1.1 -0.78 -1.62 -1.22 z" fill="#393E46"></path></g></svg>