<svg fill="none" height="46" viewBox="0 0 46 46" width="46" xmlns="http://www.w3.org/2000/svg"><g fill="#e85c30"><path d="m21.808 33c0 .5523-.4477 1-1 1h-8.808c-.5523 0-1-.4477-1-1v-6.6036c0-3.0768.2692-5.4978.8077-7.2632.5641-1.7905 1.5898-3.392 3.077-4.8043 1.3035-1.2378 2.9222-2.2431 4.8561-3.016.4724-.1888 1.0033.0333 1.2243.4916l1.2316 2.5549c.2627.5448-.0168 1.1926-.5757 1.4234-1.6049.6629-2.799 1.5149-3.5823 2.556-.7675 1.0485-1.2337 2.3846-1.3985 4.0084-.0568.559.3998 1.0229.9617 1.0229h3.2061c.5523 0 1 .4477 1 1z"/><path d="m34.7105 33c0 .5523-.4477 1-1 1h-8.8081c-.5523 0-1-.4477-1-1v-6.6036c0-3.0768.2693-5.4978.8078-7.2632.5641-1.7905 1.5897-3.392 3.077-4.8043 1.3035-1.2378 2.9222-2.2431 4.856-3.016.4724-.1888 1.0034.0333 1.2243.4916l1.2317 2.5549c.2626.5448-.0169 1.1926-.5758 1.4234-1.6049.6629-2.799 1.5149-3.5823 2.556-.7675 1.0485-1.2337 2.3846-1.3985 4.0084-.0567.559.3999 1.0229.9617 1.0229h3.2062c.5523 0 1 .4477 1 1z"/><path clip-rule="evenodd" d="m23 44c11.598 0 21-9.402 21-21s-9.402-21-21-21-21 9.402-21 21 9.402 21 21 21zm0 2c12.7025 0 23-10.2975 23-23s-10.2975-23-23-23-23 10.2975-23 23 10.2975 23 23 23z" fill-rule="evenodd"/></g></svg>